<svg width="373" height="79" viewBox="0 0 373 79" fill="none" xmlns="http://www.w3.org/2000/svg">
<g filter="url(#filter0_d)">
<path d="M56.3094 67H11.9094V11H56.3094V22.2H26.3094V33H49.9094V44.2H26.3094V55.8H56.3094V67Z" fill="white"/>
<path d="M56.3094 67V68H57.3094V67H56.3094ZM11.9094 67H10.9094V68H11.9094V67ZM11.9094 11V10H10.9094V11H11.9094ZM56.3094 11H57.3094V10H56.3094V11ZM56.3094 22.2V23.2H57.3094V22.2H56.3094ZM26.3094 22.2V21.2H25.3094V22.2H26.3094ZM26.3094 33H25.3094V34H26.3094V33ZM49.9094 33H50.9094V32H49.9094V33ZM49.9094 44.2V45.2H50.9094V44.2H49.9094ZM26.3094 44.2V43.2H25.3094V44.2H26.3094ZM26.3094 55.8H25.3094V56.8H26.3094V55.8ZM56.3094 55.8H57.3094V54.8H56.3094V55.8ZM56.3094 66H11.9094V68H56.3094V66ZM12.9094 67V11H10.9094V67H12.9094ZM11.9094 12H56.3094V10H11.9094V12ZM55.3094 11V22.2H57.3094V11H55.3094ZM56.3094 21.2H26.3094V23.2H56.3094V21.2ZM25.3094 22.2V33H27.3094V22.2H25.3094ZM26.3094 34H49.9094V32H26.3094V34ZM48.9094 33V44.2H50.9094V33H48.9094ZM49.9094 43.2H26.3094V45.2H49.9094V43.2ZM25.3094 44.2V55.8H27.3094V44.2H25.3094ZM26.3094 56.8H56.3094V54.8H26.3094V56.8ZM55.3094 55.8V67H57.3094V55.8H55.3094Z" fill="#BB86FC"/>
</g>
<g filter="url(#filter1_d)">
<path d="M93.5016 50.2L107.102 11H122.702L101.502 67H85.5016L64.3016 11H79.9016L93.5016 50.2Z" fill="white"/>
<path d="M93.5016 50.2L92.5568 50.5278L93.5016 53.2509L94.4463 50.5278L93.5016 50.2ZM107.102 11V10H106.39L106.157 10.6722L107.102 11ZM122.702 11L123.637 11.354L124.149 10H122.702V11ZM101.502 67V68H102.192L102.437 67.3541L101.502 67ZM85.5016 67L84.5663 67.3541L84.8109 68H85.5016V67ZM64.3016 11V10H62.8537L63.3663 11.354L64.3016 11ZM79.9016 11L80.8463 10.6722L80.6131 10H79.9016V11ZM94.4463 50.5278L108.046 11.3278L106.157 10.6722L92.5568 49.8722L94.4463 50.5278ZM107.102 12H122.702V10H107.102V12ZM121.766 10.6459L100.566 66.6459L102.437 67.3541L123.637 11.354L121.766 10.6459ZM101.502 66H85.5016V68H101.502V66ZM86.4368 66.6459L65.2368 10.6459L63.3663 11.354L84.5663 67.3541L86.4368 66.6459ZM64.3016 12H79.9016V10H64.3016V12ZM78.9568 11.3278L92.5568 50.5278L94.4463 49.8722L80.8463 10.6722L78.9568 11.3278Z" fill="#BB86FC"/>
</g>
<g filter="url(#filter2_d)">
<path d="M240.881 67H225.681L206.481 33.4V67H192.081V11H207.281L226.481 44.6V11H240.881V67Z" fill="white"/>
<path d="M240.881 67V68H241.881V67H240.881ZM225.681 67L224.813 67.4961L225.101 68H225.681V67ZM206.481 33.4L207.349 32.9039L205.481 29.6344V33.4H206.481ZM206.481 67V68H207.481V67H206.481ZM192.081 67H191.081V68H192.081V67ZM192.081 11V10H191.081V11H192.081ZM207.281 11L208.149 10.5039L207.862 10H207.281V11ZM226.481 44.6L225.613 45.0961L227.481 48.3656V44.6H226.481ZM226.481 11V10H225.481V11H226.481ZM240.881 11H241.881V10H240.881V11ZM240.881 66H225.681V68H240.881V66ZM226.549 66.5039L207.349 32.9039L205.613 33.8961L224.813 67.4961L226.549 66.5039ZM205.481 33.4V67H207.481V33.4H205.481ZM206.481 66H192.081V68H206.481V66ZM193.081 67V11H191.081V67H193.081ZM192.081 12H207.281V10H192.081V12ZM206.413 11.4961L225.613 45.0961L227.349 44.1039L208.149 10.5039L206.413 11.4961ZM227.481 44.6V11H225.481V44.6H227.481ZM226.481 12H240.881V10H226.481V12ZM239.881 11V67H241.881V11H239.881Z" fill="#BB86FC"/>
</g>
<g filter="url(#filter3_d)">
<path d="M178.309 67H133.909V11H178.309V22.2H148.309V33H171.909V44.2H148.309V55.8H178.309V67Z" fill="white"/>
<path d="M178.309 67V68H179.309V67H178.309ZM133.909 67H132.909V68H133.909V67ZM133.909 11V10H132.909V11H133.909ZM178.309 11H179.309V10H178.309V11ZM178.309 22.2V23.2H179.309V22.2H178.309ZM148.309 22.2V21.2H147.309V22.2H148.309ZM148.309 33H147.309V34H148.309V33ZM171.909 33H172.909V32H171.909V33ZM171.909 44.2V45.2H172.909V44.2H171.909ZM148.309 44.2V43.2H147.309V44.2H148.309ZM148.309 55.8H147.309V56.8H148.309V55.8ZM178.309 55.8H179.309V54.8H178.309V55.8ZM178.309 66H133.909V68H178.309V66ZM134.909 67V11H132.909V67H134.909ZM133.909 12H178.309V10H133.909V12ZM177.309 11V22.2H179.309V11H177.309ZM178.309 21.2H148.309V23.2H178.309V21.2ZM147.309 22.2V33H149.309V22.2H147.309ZM148.309 34H171.909V32H148.309V34ZM170.909 33V44.2H172.909V33H170.909ZM171.909 43.2H148.309V45.2H171.909V43.2ZM147.309 44.2V55.8H149.309V44.2H147.309ZM148.309 56.8H178.309V54.8H148.309V56.8ZM177.309 55.8V67H179.309V55.8H177.309Z" fill="#BB86FC"/>
</g>
<g filter="url(#filter4_d)">
<path d="M285.195 67H270.795V22.2H253.995V11H301.995V22.2H285.195V67Z" fill="white"/>
<path d="M285.195 67V68H286.195V67H285.195ZM270.795 67H269.795V68H270.795V67ZM270.795 22.2H271.795V21.2H270.795V22.2ZM253.995 22.2H252.995V23.2H253.995V22.2ZM253.995 11V10H252.995V11H253.995ZM301.995 11H302.995V10H301.995V11ZM301.995 22.2V23.2H302.995V22.2H301.995ZM285.195 22.2V21.2H284.195V22.2H285.195ZM285.195 66H270.795V68H285.195V66ZM271.795 67V22.2H269.795V67H271.795ZM270.795 21.2H253.995V23.2H270.795V21.2ZM254.995 22.2V11H252.995V22.2H254.995ZM253.995 12H301.995V10H253.995V12ZM300.995 11V22.2H302.995V11H300.995ZM301.995 21.2H285.195V23.2H301.995V21.2ZM284.195 22.2V67H286.195V22.2H284.195Z" fill="#BB86FC"/>
</g>
<g filter="url(#filter5_d)">
<path d="M313.323 55.4C327.936 56.2 337.83 56.6 343.003 56.6C344.23 56.6 345.19 56.2533 345.883 55.56C346.63 54.8133 347.003 53.8267 347.003 52.6V45.4H328.603C323.003 45.4 318.923 44.1467 316.363 41.64C313.856 39.08 312.603 35 312.603 29.4V27C312.603 21.4 313.856 17.3467 316.363 14.84C318.923 12.28 323.003 11 328.603 11H356.683V22.2H331.803C328.603 22.2 327.003 23.8 327.003 27V28.6C327.003 31.8 328.603 33.4 331.803 33.4H346.203C351.43 33.4 355.27 34.6267 357.723 37.08C360.176 39.5333 361.403 43.3733 361.403 48.6V52.6C361.403 57.8267 360.176 61.6667 357.723 64.12C355.27 66.5733 351.43 67.8 346.203 67.8C343.483 67.8 340.603 67.7467 337.563 67.64L330.203 67.32C324.763 67.0533 319.136 66.68 313.323 66.2V55.4Z" fill="white"/>
<path d="M313.323 55.4L313.378 54.4015L312.323 54.3438V55.4H313.323ZM345.883 55.56L345.176 54.8529L345.176 54.8529L345.883 55.56ZM347.003 45.4H348.003V44.4H347.003V45.4ZM316.363 41.64L315.649 42.3396L315.656 42.3471L315.664 42.3545L316.363 41.64ZM316.363 14.84L317.07 15.5471L317.07 15.5471L316.363 14.84ZM356.683 11H357.683V10H356.683V11ZM356.683 22.2V23.2H357.683V22.2H356.683ZM357.723 64.12L357.016 63.4129L357.016 63.4129L357.723 64.12ZM337.563 67.64L337.52 68.6391L337.528 68.6394L337.563 67.64ZM330.203 67.32L330.154 68.3188L330.16 68.3191L330.203 67.32ZM313.323 66.2H312.323V67.1208L313.241 67.1966L313.323 66.2ZM313.268 56.3985C327.878 57.1983 337.798 57.6 343.003 57.6V55.6C337.861 55.6 327.994 55.2017 313.378 54.4015L313.268 56.3985ZM343.003 57.6C344.425 57.6 345.665 57.1924 346.59 56.2671L345.176 54.8529C344.715 55.3142 344.035 55.6 343.003 55.6V57.6ZM346.59 56.2671C347.555 55.3025 348.003 54.0455 348.003 52.6H346.003C346.003 53.6078 345.705 54.3242 345.176 54.8529L346.59 56.2671ZM348.003 52.6V45.4H346.003V52.6H348.003ZM347.003 44.4H328.603V46.4H347.003V44.4ZM328.603 44.4C323.122 44.4 319.354 43.1691 317.063 40.9255L315.664 42.3545C318.492 45.1243 322.884 46.4 328.603 46.4V44.4ZM317.078 40.9404C314.834 38.6491 313.603 34.8811 313.603 29.4H311.603C311.603 35.1189 312.879 39.5109 315.649 42.3396L317.078 40.9404ZM313.603 29.4V27H311.603V29.4H313.603ZM313.603 27C313.603 21.5165 314.835 17.7823 317.07 15.5471L315.656 14.1329C312.878 16.9111 311.603 21.2835 311.603 27H313.603ZM317.07 15.5471C319.362 13.2554 323.127 12 328.603 12V10C322.879 10 318.484 11.3046 315.656 14.1329L317.07 15.5471ZM328.603 12H356.683V10H328.603V12ZM355.683 11V22.2H357.683V11H355.683ZM356.683 21.2H331.803V23.2H356.683V21.2ZM331.803 21.2C330.049 21.2 328.55 21.6392 327.496 22.6929C326.442 23.7466 326.003 25.2459 326.003 27H328.003C328.003 25.5541 328.364 24.6534 328.91 24.1071C329.457 23.5608 330.357 23.2 331.803 23.2V21.2ZM326.003 27V28.6H328.003V27H326.003ZM326.003 28.6C326.003 30.3541 326.442 31.8534 327.496 32.9071C328.55 33.9608 330.049 34.4 331.803 34.4V32.4C330.357 32.4 329.457 32.0392 328.91 31.4929C328.364 30.9466 328.003 30.0459 328.003 28.6H326.003ZM331.803 34.4H346.203V32.4H331.803V34.4ZM346.203 34.4C351.297 34.4 354.827 35.5978 357.016 37.7871L358.43 36.3729C355.713 33.6555 351.563 32.4 346.203 32.4V34.4ZM357.016 37.7871C359.205 39.9764 360.403 43.506 360.403 48.6H362.403C362.403 43.2406 361.148 39.0903 358.43 36.3729L357.016 37.7871ZM360.403 48.6V52.6H362.403V48.6H360.403ZM360.403 52.6C360.403 57.694 359.205 61.2236 357.016 63.4129L358.43 64.8271C361.148 62.1097 362.403 57.9594 362.403 52.6H360.403ZM357.016 63.4129C354.827 65.6022 351.297 66.8 346.203 66.8V68.8C351.563 68.8 355.713 67.5445 358.43 64.8271L357.016 63.4129ZM346.203 66.8C343.496 66.8 340.628 66.7469 337.598 66.6406L337.528 68.6394C340.578 68.7464 343.47 68.8 346.203 68.8V66.8ZM337.607 66.6409L330.247 66.3209L330.16 68.3191L337.52 68.6391L337.607 66.6409ZM330.252 66.3212C324.824 66.0551 319.208 65.6825 313.405 65.2034L313.241 67.1966C319.064 67.6775 324.702 68.0516 330.154 68.3188L330.252 66.3212ZM314.323 66.2V55.4H312.323V66.2H314.323Z" fill="#BB86FC"/>
</g>
<defs>
<filter id="filter0_d" x="0.909424" y="0" width="66.4" height="78" filterUnits="userSpaceOnUse" color-interpolation-filters="sRGB">
<feFlood flood-opacity="0" result="BackgroundImageFix"/>
<feColorMatrix in="SourceAlpha" type="matrix" values="0 0 0 0 0 0 0 0 0 0 0 0 0 0 0 0 0 0 127 0"/>
<feOffset/>
<feGaussianBlur stdDeviation="5"/>
<feColorMatrix type="matrix" values="0 0 0 0 1 0 0 0 0 1 0 0 0 0 1 0 0 0 1 0"/>
<feBlend mode="normal" in2="BackgroundImageFix" result="effect1_dropShadow"/>
<feBlend mode="normal" in="SourceGraphic" in2="effect1_dropShadow" result="shape"/>
</filter>
<filter id="filter1_d" x="52.8538" y="0" width="81.2957" height="78" filterUnits="userSpaceOnUse" color-interpolation-filters="sRGB">
<feFlood flood-opacity="0" result="BackgroundImageFix"/>
<feColorMatrix in="SourceAlpha" type="matrix" values="0 0 0 0 0 0 0 0 0 0 0 0 0 0 0 0 0 0 127 0"/>
<feOffset/>
<feGaussianBlur stdDeviation="5"/>
<feColorMatrix type="matrix" values="0 0 0 0 1 0 0 0 0 1 0 0 0 0 1 0 0 0 1 0"/>
<feBlend mode="normal" in2="BackgroundImageFix" result="effect1_dropShadow"/>
<feBlend mode="normal" in="SourceGraphic" in2="effect1_dropShadow" result="shape"/>
</filter>
<filter id="filter2_d" x="181.081" y="0" width="70.8" height="78" filterUnits="userSpaceOnUse" color-interpolation-filters="sRGB">
<feFlood flood-opacity="0" result="BackgroundImageFix"/>
<feColorMatrix in="SourceAlpha" type="matrix" values="0 0 0 0 0 0 0 0 0 0 0 0 0 0 0 0 0 0 127 0"/>
<feOffset/>
<feGaussianBlur stdDeviation="5"/>
<feColorMatrix type="matrix" values="0 0 0 0 1 0 0 0 0 1 0 0 0 0 1 0 0 0 1 0"/>
<feBlend mode="normal" in2="BackgroundImageFix" result="effect1_dropShadow"/>
<feBlend mode="normal" in="SourceGraphic" in2="effect1_dropShadow" result="shape"/>
</filter>
<filter id="filter3_d" x="122.909" y="0" width="66.4" height="78" filterUnits="userSpaceOnUse" color-interpolation-filters="sRGB">
<feFlood flood-opacity="0" result="BackgroundImageFix"/>
<feColorMatrix in="SourceAlpha" type="matrix" values="0 0 0 0 0 0 0 0 0 0 0 0 0 0 0 0 0 0 127 0"/>
<feOffset/>
<feGaussianBlur stdDeviation="5"/>
<feColorMatrix type="matrix" values="0 0 0 0 1 0 0 0 0 1 0 0 0 0 1 0 0 0 1 0"/>
<feBlend mode="normal" in2="BackgroundImageFix" result="effect1_dropShadow"/>
<feBlend mode="normal" in="SourceGraphic" in2="effect1_dropShadow" result="shape"/>
</filter>
<filter id="filter4_d" x="242.995" y="0" width="70" height="78" filterUnits="userSpaceOnUse" color-interpolation-filters="sRGB">
<feFlood flood-opacity="0" result="BackgroundImageFix"/>
<feColorMatrix in="SourceAlpha" type="matrix" values="0 0 0 0 0 0 0 0 0 0 0 0 0 0 0 0 0 0 127 0"/>
<feOffset/>
<feGaussianBlur stdDeviation="5"/>
<feColorMatrix type="matrix" values="0 0 0 0 1 0 0 0 0 1 0 0 0 0 1 0 0 0 1 0"/>
<feBlend mode="normal" in2="BackgroundImageFix" result="effect1_dropShadow"/>
<feBlend mode="normal" in="SourceGraphic" in2="effect1_dropShadow" result="shape"/>
</filter>
<filter id="filter5_d" x="301.603" y="0" width="70.8" height="78.8" filterUnits="userSpaceOnUse" color-interpolation-filters="sRGB">
<feFlood flood-opacity="0" result="BackgroundImageFix"/>
<feColorMatrix in="SourceAlpha" type="matrix" values="0 0 0 0 0 0 0 0 0 0 0 0 0 0 0 0 0 0 127 0"/>
<feOffset/>
<feGaussianBlur stdDeviation="5"/>
<feColorMatrix type="matrix" values="0 0 0 0 1 0 0 0 0 1 0 0 0 0 1 0 0 0 1 0"/>
<feBlend mode="normal" in2="BackgroundImageFix" result="effect1_dropShadow"/>
<feBlend mode="normal" in="SourceGraphic" in2="effect1_dropShadow" result="shape"/>
</filter>
</defs>
</svg>