<svg width="30" height="30" viewBox="0 0 30 30" fill="none" xmlns="http://www.w3.org/2000/svg">
<path d="M8.91 0H21.09C25.73 0 29.5 3.9 29.5 8.7V21.3C29.5 23.6074 28.614 25.8203 27.0368 27.4518C25.4596 29.0834 23.3205 30 21.09 30H8.91C4.27 30 0.5 26.1 0.5 21.3V8.7C0.5 6.39262 1.38605 4.17974 2.96323 2.54817C4.54041 0.916605 6.67953 0 8.91 0ZM8.62 3C7.23557 3 5.90784 3.56893 4.9289 4.58162C3.94996 5.59432 3.4 6.96783 3.4 8.4V21.6C3.4 24.585 5.7345 27 8.62 27H21.38C22.7644 27 24.0922 26.4311 25.0711 25.4184C26.05 24.4057 26.6 23.0322 26.6 21.6V8.4C26.6 5.415 24.2655 3 21.38 3H8.62ZM22.6125 5.25C23.0932 5.25 23.5542 5.44754 23.8941 5.79917C24.234 6.15081 24.425 6.62772 24.425 7.125C24.425 7.62228 24.234 8.09919 23.8941 8.45082C23.5542 8.80246 23.0932 9 22.6125 9C22.1318 9 21.6708 8.80246 21.3309 8.45082C20.991 8.09919 20.8 7.62228 20.8 7.125C20.8 6.62772 20.991 6.15081 21.3309 5.79917C21.6708 5.44754 22.1318 5.25 22.6125 5.25ZM15 7.5C16.9228 7.5 18.7669 8.29018 20.1265 9.6967C21.4862 11.1032 22.25 13.0109 22.25 15C22.25 16.9891 21.4862 18.8968 20.1265 20.3033C18.7669 21.7098 16.9228 22.5 15 22.5C13.0772 22.5 11.2331 21.7098 9.87348 20.3033C8.51384 18.8968 7.75 16.9891 7.75 15C7.75 13.0109 8.51384 11.1032 9.87348 9.6967C11.2331 8.29018 13.0772 7.5 15 7.5ZM15 10.5C13.8463 10.5 12.7399 10.9741 11.9241 11.818C11.1083 12.6619 10.65 13.8065 10.65 15C10.65 16.1935 11.1083 17.3381 11.9241 18.182C12.7399 19.0259 13.8463 19.5 15 19.5C16.1537 19.5 17.2601 19.0259 18.0759 18.182C18.8917 17.3381 19.35 16.1935 19.35 15C19.35 13.8065 18.8917 12.6619 18.0759 11.818C17.2601 10.9741 16.1537 10.5 15 10.5Z" fill="white"/>
</svg>