<svg width="29" height="30" viewBox="0 0 29 30" fill="none" xmlns="http://www.w3.org/2000/svg">
<path d="M3.16667 0H25.3333C26.1732 0 26.9786 0.34241 27.5725 0.951903C28.1664 1.5614 28.5 2.38805 28.5 3.25V26C28.5 26.862 28.1664 27.6886 27.5725 28.2981C26.9786 28.9076 26.1732 29.25 25.3333 29.25H3.16667C2.32681 29.25 1.52136 28.9076 0.927495 28.2981C0.33363 27.6886 0 26.862 0 26V3.25C0 2.38805 0.33363 1.5614 0.927495 0.951903C1.52136 0.34241 2.32681 0 3.16667 0ZM23.75 3.25H19.7917C18.3219 3.25 16.9124 3.84922 15.8731 4.91583C14.8339 5.98244 14.25 7.42908 14.25 8.9375V13H11.0833V17.875H14.25V29.25H19V17.875H23.75V13H19V9.75C19 9.31902 19.1668 8.9057 19.4637 8.60095C19.7607 8.29621 20.1634 8.125 20.5833 8.125H23.75V3.25Z" fill="white"/>
</svg>