<svg width="33" height="23" viewBox="0 0 33 23" fill="none" xmlns="http://www.w3.org/2000/svg">
<path d="M13.112 16.25L21.3295 11.375L13.112 6.5V16.25ZM31.4153 3.52625C31.6211 4.29 31.7636 5.31375 31.8586 6.61375C31.9695 7.91375 32.017 9.035 32.017 10.01L32.112 11.375C32.112 14.9338 31.8586 17.55 31.4153 19.2237C31.0195 20.6863 30.1011 21.6287 28.6761 22.035C27.932 22.2462 26.5703 22.3925 24.4803 22.49C22.422 22.6038 20.5378 22.6525 18.7961 22.6525L16.2786 22.75C9.64448 22.75 5.51198 22.49 3.88115 22.035C2.45615 21.6287 1.53781 20.6863 1.14198 19.2237C0.936146 18.46 0.793646 17.4363 0.698646 16.1362C0.587813 14.8363 0.540312 13.715 0.540312 12.74L0.445312 11.375C0.445312 7.81625 0.698646 5.2 1.14198 3.52625C1.53781 2.06375 2.45615 1.12125 3.88115 0.715C4.62531 0.50375 5.98698 0.3575 8.07698 0.26C10.1353 0.14625 12.0195 0.0974999 13.7611 0.0974999L16.2786 0C22.9128 0 27.0453 0.26 28.6761 0.715C30.1011 1.12125 31.0195 2.06375 31.4153 3.52625Z" fill="white"/>
</svg>