<svg width="33" height="33" viewBox="0 0 33 33" fill="none" xmlns="http://www.w3.org/2000/svg">
<path d="M25.6535 11.9113C26.4135 11.2612 27.3001 10.4812 27.696 9.62C27.0468 9.96125 26.271 10.1725 25.416 10.2863C26.2076 9.70125 26.8568 8.9375 27.1893 7.8975C26.366 8.3525 25.5268 8.7425 24.4818 8.9375C22.0276 5.89875 16.1535 8.36875 17.1985 12.9187C13.066 12.6587 10.5485 10.7413 8.45846 8.385C7.27096 10.3675 8.30013 13.3737 9.7093 14.2025C8.98096 14.1537 8.4268 13.9262 7.9043 13.6663C7.96763 16.1687 9.31346 17.3713 11.1976 18.0212C10.6276 18.135 9.9943 18.1675 9.39263 18.07C9.97846 19.8088 11.1976 20.8975 13.2876 21.125C11.8626 22.36 9.2343 23.2213 7.11263 22.88C8.93346 24.0662 11.0076 25.0087 13.8893 24.8787C20.8718 24.5537 25.5426 19.4187 25.6535 11.9113ZM16.6126 0C18.6919 0 20.7508 0.420319 22.6718 1.23696C24.5928 2.0536 26.3382 3.25056 27.8085 4.75951C29.2788 6.26847 30.445 8.05985 31.2407 10.0314C32.0364 12.0029 32.446 14.116 32.446 16.25C32.446 20.5598 30.7778 24.693 27.8085 27.7405C24.8392 30.788 20.8119 32.5 16.6126 32.5C14.5334 32.5 12.4745 32.0797 10.5535 31.263C8.63249 30.4464 6.88703 29.2494 5.41677 27.7405C2.44745 24.693 0.779297 20.5598 0.779297 16.25C0.779297 11.9402 2.44745 7.80698 5.41677 4.75951C8.3861 1.71205 12.4134 0 16.6126 0Z" fill="white"/>
</svg>