<svg width="30" height="30" viewBox="0 0 30 30" fill="none" xmlns="http://www.w3.org/2000/svg">
<path d="M3.91667 0H26.0833C26.9232 0 27.7286 0.34241 28.3225 0.951903C28.9164 1.5614 29.25 2.38805 29.25 3.25V26C29.25 26.862 28.9164 27.6886 28.3225 28.2981C27.7286 28.9076 26.9232 29.25 26.0833 29.25H10.7092C11.3425 28.1612 12.1342 26.6175 12.4508 25.415L13.4958 21.6775C13.9867 22.6688 15.4433 23.4813 16.9317 23.4813C21.6025 23.4813 24.8483 19.1425 24.8483 13.7312C24.8483 8.58 20.7633 4.69625 15.475 4.69625C8.88833 4.69625 5.4525 9.21375 5.4525 14.17C5.4525 16.4775 6.5925 19.3212 8.52417 20.2312C8.79333 20.41 8.9675 20.3125 8.9675 20.0525L9.41083 18.33C9.45833 18.1025 9.45833 17.9725 9.31583 17.875C8.61917 16.9813 8.17583 15.6162 8.17583 14.2675C8.17583 10.79 10.725 7.49125 15.0475 7.49125C18.8317 7.49125 21.46 10.0588 21.46 13.8125C21.46 18.0537 19.3542 21.0437 16.6308 21.0437C15.0792 21.0437 14.0342 19.6788 14.2875 18.1513C14.7308 16.2987 15.6175 14.3488 15.6175 13C15.6175 11.7325 15 10.7412 13.67 10.7412C12.1817 10.7412 10.8675 12.3663 10.8675 14.5437C10.8675 15.9738 11.295 16.8838 11.295 16.8838L9.5375 24.6513C9.28417 26 9.41083 28.0312 9.5375 29.25H3.91667C3.07681 29.25 2.27136 28.9076 1.6775 28.2981C1.08363 27.6886 0.75 26.862 0.75 26V3.25C0.75 2.38805 1.08363 1.5614 1.6775 0.951903C2.27136 0.34241 3.07681 0 3.91667 0Z" fill="white"/>
</svg>