<svg width="399" height="78" viewBox="0 0 399 78" fill="none" xmlns="http://www.w3.org/2000/svg">
<g filter="url(#filter0_d)">
<path d="M42.4219 67H28.0219V22.2H11.2219V11H59.2219V22.2H42.4219V67ZM68.8313 11H102.431C108.031 11 112.085 12.28 114.591 14.84C117.151 17.3467 118.431 21.4 118.431 27V34.2C118.431 38.6267 117.685 42.0667 116.191 44.52C114.751 46.9733 112.431 48.6 109.231 49.4L119.231 67H103.631L94.4313 50.2H83.2313V67H68.8313V11ZM104.031 27C104.031 23.8 102.431 22.2 99.2313 22.2H83.2313V39H99.2313C102.431 39 104.031 37.4 104.031 34.2V27ZM140.409 67H124.809L146.009 11H162.009L183.209 67H167.609L164.009 57H144.009L140.409 67ZM147.609 46.6H160.409L154.009 27.8L147.609 46.6ZM217.606 67H188.806V55.8H196.006V22.2H188.806V11H217.606V22.2H210.406V55.8H217.606V67ZM243.2 55.8H272.4V67H228.8V11H243.2V55.8ZM326.419 67H282.019V11H326.419V22.2H296.419V33H320.019V44.2H296.419V55.8H326.419V67ZM336.8 11H370.4C376 11 380.053 12.28 382.56 14.84C385.12 17.3467 386.4 21.4 386.4 27V34.2C386.4 38.6267 385.653 42.0667 384.16 44.52C382.72 46.9733 380.4 48.6 377.2 49.4L387.2 67H371.6L362.4 50.2H351.2V67H336.8V11ZM372 27C372 23.8 370.4 22.2 367.2 22.2H351.2V39H367.2C370.4 39 372 37.4 372 34.2V27Z" fill="white"/>
<path d="M42.4219 67V68H43.4219V67H42.4219ZM28.0219 67H27.0219V68H28.0219V67ZM28.0219 22.2H29.0219V21.2H28.0219V22.2ZM11.2219 22.2H10.2219V23.2H11.2219V22.2ZM11.2219 11V10H10.2219V11H11.2219ZM59.2219 11H60.2219V10H59.2219V11ZM59.2219 22.2V23.2H60.2219V22.2H59.2219ZM42.4219 22.2V21.2H41.4219V22.2H42.4219ZM42.4219 66H28.0219V68H42.4219V66ZM29.0219 67V22.2H27.0219V67H29.0219ZM28.0219 21.2H11.2219V23.2H28.0219V21.2ZM12.2219 22.2V11H10.2219V22.2H12.2219ZM11.2219 12H59.2219V10H11.2219V12ZM58.2219 11V22.2H60.2219V11H58.2219ZM59.2219 21.2H42.4219V23.2H59.2219V21.2ZM41.4219 22.2V67H43.4219V22.2H41.4219ZM68.8313 11V10H67.8313V11H68.8313ZM114.591 14.84L113.877 15.5396L113.884 15.5471L113.892 15.5545L114.591 14.84ZM116.191 44.52L115.337 44.0001L115.333 44.0069L115.329 44.0138L116.191 44.52ZM109.231 49.4L108.989 48.4299L107.711 48.7492L108.362 49.894L109.231 49.4ZM119.231 67V68H120.95L120.101 66.506L119.231 67ZM103.631 67L102.754 67.4803L103.039 68H103.631V67ZM94.4313 50.2L95.3083 49.7197L95.0238 49.2H94.4313V50.2ZM83.2313 50.2V49.2H82.2313V50.2H83.2313ZM83.2313 67V68H84.2313V67H83.2313ZM68.8313 67H67.8313V68H68.8313V67ZM83.2313 22.2V21.2H82.2313V22.2H83.2313ZM83.2313 39H82.2313V40H83.2313V39ZM68.8313 12H102.431V10H68.8313V12ZM102.431 12C107.91 12 111.641 13.2563 113.877 15.5396L115.306 14.1404C112.528 11.3037 108.153 10 102.431 10V12ZM113.892 15.5545C116.175 17.7902 117.431 21.5213 117.431 27H119.431C119.431 21.2787 118.128 16.9031 115.291 14.1255L113.892 15.5545ZM117.431 27V34.2H119.431V27H117.431ZM117.431 34.2C117.431 38.5346 116.697 41.7664 115.337 44.0001L117.045 45.0399C118.673 42.3669 119.431 38.7187 119.431 34.2H117.431ZM115.329 44.0138C114.047 46.1983 111.973 47.6837 108.989 48.4299L109.474 50.3701C112.889 49.5163 115.456 47.7484 117.054 45.0262L115.329 44.0138ZM108.362 49.894L118.362 67.494L120.101 66.506L110.101 48.906L108.362 49.894ZM119.231 66H103.631V68H119.231V66ZM104.508 66.5197L95.3083 49.7197L93.5542 50.6803L102.754 67.4803L104.508 66.5197ZM94.4313 49.2H83.2313V51.2H94.4313V49.2ZM82.2313 50.2V67H84.2313V50.2H82.2313ZM83.2313 66H68.8313V68H83.2313V66ZM69.8313 67V11H67.8313V67H69.8313ZM105.031 27C105.031 25.2459 104.592 23.7466 103.538 22.6929C102.485 21.6392 100.985 21.2 99.2313 21.2V23.2C100.677 23.2 101.578 23.5608 102.124 24.1071C102.67 24.6534 103.031 25.5541 103.031 27H105.031ZM99.2313 21.2H83.2313V23.2H99.2313V21.2ZM82.2313 22.2V39H84.2313V22.2H82.2313ZM83.2313 40H99.2313V38H83.2313V40ZM99.2313 40C100.985 40 102.485 39.5608 103.538 38.5071C104.592 37.4534 105.031 35.9541 105.031 34.2H103.031C103.031 35.6459 102.67 36.5466 102.124 37.0929C101.578 37.6392 100.677 38 99.2313 38V40ZM105.031 34.2V27H103.031V34.2H105.031ZM140.409 67V68H141.112L141.35 67.3387L140.409 67ZM124.809 67L123.874 66.6459L123.362 68H124.809V67ZM146.009 11V10H145.319L145.074 10.6459L146.009 11ZM162.009 11L162.945 10.6459L162.7 10H162.009V11ZM183.209 67V68H184.657L184.145 66.6459L183.209 67ZM167.609 67L166.668 67.3387L166.907 68H167.609V67ZM164.009 57L164.95 56.6613L164.712 56H164.009V57ZM144.009 57V56H143.307L143.068 56.6613L144.009 57ZM147.609 46.6L146.663 46.2777L146.213 47.6H147.609V46.6ZM160.409 46.6V47.6H161.806L161.356 46.2777L160.409 46.6ZM154.009 27.8L154.956 27.4777L154.009 24.697L153.063 27.4777L154.009 27.8ZM140.409 66H124.809V68H140.409V66ZM125.745 67.3541L146.945 11.354L145.074 10.6459L123.874 66.6459L125.745 67.3541ZM146.009 12H162.009V10H146.009V12ZM161.074 11.354L182.274 67.3541L184.145 66.6459L162.945 10.6459L161.074 11.354ZM183.209 66H167.609V68H183.209V66ZM168.55 66.6613L164.95 56.6613L163.068 57.3387L166.668 67.3387L168.55 66.6613ZM164.009 56H144.009V58H164.009V56ZM143.068 56.6613L139.468 66.6613L141.35 67.3387L144.95 57.3387L143.068 56.6613ZM147.609 47.6H160.409V45.6H147.609V47.6ZM161.356 46.2777L154.956 27.4777L153.063 28.1223L159.463 46.9223L161.356 46.2777ZM153.063 27.4777L146.663 46.2777L148.556 46.9223L154.956 28.1223L153.063 27.4777ZM217.606 67V68H218.606V67H217.606ZM188.806 67H187.806V68H188.806V67ZM188.806 55.8V54.8H187.806V55.8H188.806ZM196.006 55.8V56.8H197.006V55.8H196.006ZM196.006 22.2H197.006V21.2H196.006V22.2ZM188.806 22.2H187.806V23.2H188.806V22.2ZM188.806 11V10H187.806V11H188.806ZM217.606 11H218.606V10H217.606V11ZM217.606 22.2V23.2H218.606V22.2H217.606ZM210.406 22.2V21.2H209.406V22.2H210.406ZM210.406 55.8H209.406V56.8H210.406V55.8ZM217.606 55.8H218.606V54.8H217.606V55.8ZM217.606 66H188.806V68H217.606V66ZM189.806 67V55.8H187.806V67H189.806ZM188.806 56.8H196.006V54.8H188.806V56.8ZM197.006 55.8V22.2H195.006V55.8H197.006ZM196.006 21.2H188.806V23.2H196.006V21.2ZM189.806 22.2V11H187.806V22.2H189.806ZM188.806 12H217.606V10H188.806V12ZM216.606 11V22.2H218.606V11H216.606ZM217.606 21.2H210.406V23.2H217.606V21.2ZM209.406 22.2V55.8H211.406V22.2H209.406ZM210.406 56.8H217.606V54.8H210.406V56.8ZM216.606 55.8V67H218.606V55.8H216.606ZM243.2 55.8H242.2V56.8H243.2V55.8ZM272.4 55.8H273.4V54.8H272.4V55.8ZM272.4 67V68H273.4V67H272.4ZM228.8 67H227.8V68H228.8V67ZM228.8 11V10H227.8V11H228.8ZM243.2 11H244.2V10H243.2V11ZM243.2 56.8H272.4V54.8H243.2V56.8ZM271.4 55.8V67H273.4V55.8H271.4ZM272.4 66H228.8V68H272.4V66ZM229.8 67V11H227.8V67H229.8ZM228.8 12H243.2V10H228.8V12ZM242.2 11V55.8H244.2V11H242.2ZM326.419 67V68H327.419V67H326.419ZM282.019 67H281.019V68H282.019V67ZM282.019 11V10H281.019V11H282.019ZM326.419 11H327.419V10H326.419V11ZM326.419 22.2V23.2H327.419V22.2H326.419ZM296.419 22.2V21.2H295.419V22.2H296.419ZM296.419 33H295.419V34H296.419V33ZM320.019 33H321.019V32H320.019V33ZM320.019 44.2V45.2H321.019V44.2H320.019ZM296.419 44.2V43.2H295.419V44.2H296.419ZM296.419 55.8H295.419V56.8H296.419V55.8ZM326.419 55.8H327.419V54.8H326.419V55.8ZM326.419 66H282.019V68H326.419V66ZM283.019 67V11H281.019V67H283.019ZM282.019 12H326.419V10H282.019V12ZM325.419 11V22.2H327.419V11H325.419ZM326.419 21.2H296.419V23.2H326.419V21.2ZM295.419 22.2V33H297.419V22.2H295.419ZM296.419 34H320.019V32H296.419V34ZM319.019 33V44.2H321.019V33H319.019ZM320.019 43.2H296.419V45.2H320.019V43.2ZM295.419 44.2V55.8H297.419V44.2H295.419ZM296.419 56.8H326.419V54.8H296.419V56.8ZM325.419 55.8V67H327.419V55.8H325.419ZM336.8 11V10H335.8V11H336.8ZM382.56 14.84L381.845 15.5396L381.853 15.5471L381.86 15.5545L382.56 14.84ZM384.16 44.52L383.306 44.0001L383.302 44.0069L383.298 44.0138L384.16 44.52ZM377.2 49.4L376.957 48.4299L375.68 48.7492L376.331 49.894L377.2 49.4ZM387.2 67V68H388.918L388.069 66.506L387.2 67ZM371.6 67L370.723 67.4803L371.007 68H371.6V67ZM362.4 50.2L363.277 49.7197L362.993 49.2H362.4V50.2ZM351.2 50.2V49.2H350.2V50.2H351.2ZM351.2 67V68H352.2V67H351.2ZM336.8 67H335.8V68H336.8V67ZM351.2 22.2V21.2H350.2V22.2H351.2ZM351.2 39H350.2V40H351.2V39ZM336.8 12H370.4V10H336.8V12ZM370.4 12C375.879 12 379.61 13.2563 381.845 15.5396L383.275 14.1404C380.497 11.3037 376.121 10 370.4 10V12ZM381.86 15.5545C384.144 17.7902 385.4 21.5213 385.4 27H387.4C387.4 21.2787 386.096 16.9031 383.26 14.1255L381.86 15.5545ZM385.4 27V34.2H387.4V27H385.4ZM385.4 34.2C385.4 38.5346 384.665 41.7664 383.306 44.0001L385.014 45.0399C386.641 42.3669 387.4 38.7187 387.4 34.2H385.4ZM383.298 44.0138C382.015 46.1983 379.942 47.6837 376.957 48.4299L377.443 50.3701C380.858 49.5163 383.425 47.7484 385.022 45.0262L383.298 44.0138ZM376.331 49.894L386.331 67.494L388.069 66.506L378.069 48.906L376.331 49.894ZM387.2 66H371.6V68H387.2V66ZM372.477 66.5197L363.277 49.7197L361.523 50.6803L370.723 67.4803L372.477 66.5197ZM362.4 49.2H351.2V51.2H362.4V49.2ZM350.2 50.2V67H352.2V50.2H350.2ZM351.2 66H336.8V68H351.2V66ZM337.8 67V11H335.8V67H337.8ZM373 27C373 25.2459 372.561 23.7466 371.507 22.6929C370.453 21.6392 368.954 21.2 367.2 21.2V23.2C368.646 23.2 369.547 23.5608 370.093 24.1071C370.639 24.6534 371 25.5541 371 27H373ZM367.2 21.2H351.2V23.2H367.2V21.2ZM350.2 22.2V39H352.2V22.2H350.2ZM351.2 40H367.2V38H351.2V40ZM367.2 40C368.954 40 370.453 39.5608 371.507 38.5071C372.561 37.4534 373 35.9541 373 34.2H371C371 35.6459 370.639 36.5466 370.093 37.0929C369.547 37.6392 368.646 38 367.2 38V40ZM373 34.2V27H371V34.2H373Z" fill="#BB86FC"/>
</g>
<defs>
<filter id="filter0_d" x="0.221924" y="0" width="398.696" height="78" filterUnits="userSpaceOnUse" color-interpolation-filters="sRGB">
<feFlood flood-opacity="0" result="BackgroundImageFix"/>
<feColorMatrix in="SourceAlpha" type="matrix" values="0 0 0 0 0 0 0 0 0 0 0 0 0 0 0 0 0 0 127 0"/>
<feOffset/>
<feGaussianBlur stdDeviation="5"/>
<feColorMatrix type="matrix" values="0 0 0 0 1 0 0 0 0 1 0 0 0 0 1 0 0 0 1 0"/>
<feBlend mode="normal" in2="BackgroundImageFix" result="effect1_dropShadow"/>
<feBlend mode="normal" in="SourceGraphic" in2="effect1_dropShadow" result="shape"/>
</filter>
</defs>
</svg>