<svg width="359" height="79" viewBox="0 0 359 79" fill="none" xmlns="http://www.w3.org/2000/svg">
<g filter="url(#filter0_d)">
<path d="M60.8703 65.8C48.3903 67.1333 36.9236 67.8 26.4703 67.8C21.2436 67.8 17.4036 66.5733 14.9503 64.12C12.497 61.6667 11.2703 57.8267 11.2703 52.6V27C11.2703 21.4 12.5236 17.3467 15.0303 14.84C17.5903 12.28 21.6703 11 27.2703 11H56.0703V22.2H30.4703C27.2703 22.2 25.6703 23.8 25.6703 27V52.6C25.6703 53.8267 26.017 54.8133 26.7103 55.56C27.457 56.2533 28.4436 56.6 29.6703 56.6C35.8036 56.6 41.4036 56.4667 46.4703 56.2V44.6H36.0703V35H60.8703V65.8ZM87.2859 55.8H116.486V67H72.8859V11H87.2859V55.8ZM136.105 67H120.505L141.705 11H157.705L178.905 67H163.305L159.705 57H139.705L136.105 67ZM143.305 46.6H156.105L149.705 27.8L143.305 46.6ZM235.702 67H220.502L201.302 33.4V67H186.902V11H202.102L221.302 44.6V11H235.702V67ZM292.539 66.2C280.646 67.2667 270.779 67.8 262.939 67.8C257.712 67.8 253.872 66.5733 251.419 64.12C248.966 61.6667 247.739 57.8267 247.739 52.6V27C247.739 21.4 248.992 17.3467 251.499 14.84C254.059 12.28 258.139 11 263.739 11H292.539V22.2H266.939C263.739 22.2 262.139 23.8 262.139 27V52.6C262.139 53.8267 262.486 54.8133 263.179 55.56C263.926 56.2533 264.859 56.6 265.979 56.6C267.099 56.6 268.326 56.6 269.659 56.6C270.992 56.5467 272.379 56.4933 273.819 56.44C275.259 56.3867 276.699 56.3333 278.139 56.28C279.632 56.2267 281.526 56.12 283.819 55.96C286.166 55.8 289.072 55.6133 292.539 55.4V66.2ZM347.348 67H302.948V11H347.348V22.2H317.348V33H340.948V44.2H317.348V55.8H347.348V67Z" fill="white"/>
<path d="M60.8703 65.8L60.9765 66.7943L61.8703 66.6989V65.8H60.8703ZM14.9503 64.12L15.6574 63.4129L15.6574 63.4129L14.9503 64.12ZM15.0303 14.84L15.7374 15.5471L15.7374 15.5471L15.0303 14.84ZM56.0703 11H57.0703V10H56.0703V11ZM56.0703 22.2V23.2H57.0703V22.2H56.0703ZM26.7103 55.56L25.9775 56.2405L26.0027 56.2676L26.0299 56.2928L26.7103 55.56ZM46.4703 56.2L46.5229 57.1986L47.4703 57.1488V56.2H46.4703ZM46.4703 44.6H47.4703V43.6H46.4703V44.6ZM36.0703 44.6H35.0703V45.6H36.0703V44.6ZM36.0703 35V34H35.0703V35H36.0703ZM60.8703 35H61.8703V34H60.8703V35ZM60.7641 64.8057C48.3126 66.1359 36.882 66.8 26.4703 66.8V68.8C36.9653 68.8 48.468 68.1307 60.9765 66.7943L60.7641 64.8057ZM26.4703 66.8C21.3764 66.8 17.8467 65.6022 15.6574 63.4129L14.2432 64.8271C16.9606 67.5445 21.1109 68.8 26.4703 68.8V66.8ZM15.6574 63.4129C13.4682 61.2236 12.2703 57.694 12.2703 52.6H10.2703C10.2703 57.9594 11.5258 62.1097 14.2432 64.8271L15.6574 63.4129ZM12.2703 52.6V27H10.2703V52.6H12.2703ZM12.2703 27C12.2703 21.5165 13.5023 17.7823 15.7374 15.5471L14.3232 14.1329C11.545 16.9111 10.2703 21.2835 10.2703 27H12.2703ZM15.7374 15.5471C18.0292 13.2554 21.794 12 27.2703 12V10C21.5466 10 17.1515 11.3046 14.3232 14.1329L15.7374 15.5471ZM27.2703 12H56.0703V10H27.2703V12ZM55.0703 11V22.2H57.0703V11H55.0703ZM56.0703 21.2H30.4703V23.2H56.0703V21.2ZM30.4703 21.2C28.7162 21.2 27.2169 21.6392 26.1632 22.6929C25.1095 23.7466 24.6703 25.2459 24.6703 27H26.6703C26.6703 25.5541 27.0311 24.6534 27.5774 24.1071C28.1237 23.5608 29.0245 23.2 30.4703 23.2V21.2ZM24.6703 27V52.6H26.6703V27H24.6703ZM24.6703 52.6C24.6703 54.0247 25.0787 55.2725 25.9775 56.2405L27.4431 54.8795C26.9553 54.3542 26.6703 53.6287 26.6703 52.6H24.6703ZM26.0299 56.2928C26.9978 57.1916 28.2456 57.6 29.6703 57.6V55.6C28.6417 55.6 27.9161 55.315 27.3908 54.8272L26.0299 56.2928ZM29.6703 57.6C35.8177 57.6 41.4355 57.4664 46.5229 57.1986L46.4178 55.2014C41.3717 55.467 35.7896 55.6 29.6703 55.6V57.6ZM47.4703 56.2V44.6H45.4703V56.2H47.4703ZM46.4703 43.6H36.0703V45.6H46.4703V43.6ZM37.0703 44.6V35H35.0703V44.6H37.0703ZM36.0703 36H60.8703V34H36.0703V36ZM59.8703 35V65.8H61.8703V35H59.8703ZM87.2859 55.8H86.2859V56.8H87.2859V55.8ZM116.486 55.8H117.486V54.8H116.486V55.8ZM116.486 67V68H117.486V67H116.486ZM72.8859 67H71.8859V68H72.8859V67ZM72.8859 11V10H71.8859V11H72.8859ZM87.2859 11H88.2859V10H87.2859V11ZM87.2859 56.8H116.486V54.8H87.2859V56.8ZM115.486 55.8V67H117.486V55.8H115.486ZM116.486 66H72.8859V68H116.486V66ZM73.8859 67V11H71.8859V67H73.8859ZM72.8859 12H87.2859V10H72.8859V12ZM86.2859 11V55.8H88.2859V11H86.2859ZM136.105 67V68H136.808L137.046 67.3387L136.105 67ZM120.505 67L119.569 66.6459L119.057 68H120.505V67ZM141.705 11V10H141.014L140.769 10.6459L141.705 11ZM157.705 11L158.64 10.6459L158.395 10H157.705V11ZM178.905 67V68H180.353L179.84 66.6459L178.905 67ZM163.305 67L162.364 67.3387L162.602 68H163.305V67ZM159.705 57L160.646 56.6613L160.408 56H159.705V57ZM139.705 57V56H139.002L138.764 56.6613L139.705 57ZM143.305 46.6L142.358 46.2777L141.908 47.6H143.305V46.6ZM156.105 46.6V47.6H157.501L157.051 46.2777L156.105 46.6ZM149.705 27.8L150.651 27.4777L149.705 24.697L148.758 27.4777L149.705 27.8ZM136.105 66H120.505V68H136.105V66ZM121.44 67.3541L142.64 11.354L140.769 10.6459L119.569 66.6459L121.44 67.3541ZM141.705 12H157.705V10H141.705V12ZM156.769 11.354L177.969 67.3541L179.84 66.6459L158.64 10.6459L156.769 11.354ZM178.905 66H163.305V68H178.905V66ZM164.246 66.6613L160.646 56.6613L158.764 57.3387L162.364 67.3387L164.246 66.6613ZM159.705 56H139.705V58H159.705V56ZM138.764 56.6613L135.164 66.6613L137.046 67.3387L140.646 57.3387L138.764 56.6613ZM143.305 47.6H156.105V45.6H143.305V47.6ZM157.051 46.2777L150.651 27.4777L148.758 28.1223L155.158 46.9223L157.051 46.2777ZM148.758 27.4777L142.358 46.2777L144.251 46.9223L150.651 28.1223L148.758 27.4777ZM235.702 67V68H236.702V67H235.702ZM220.502 67L219.633 67.4961L219.921 68H220.502V67ZM201.302 33.4L202.17 32.9039L200.302 29.6344V33.4H201.302ZM201.302 67V68H202.302V67H201.302ZM186.902 67H185.902V68H186.902V67ZM186.902 11V10H185.902V11H186.902ZM202.102 11L202.97 10.5039L202.682 10H202.102V11ZM221.302 44.6L220.433 45.0961L222.302 48.3656V44.6H221.302ZM221.302 11V10H220.302V11H221.302ZM235.702 11H236.702V10H235.702V11ZM235.702 66H220.502V68H235.702V66ZM221.37 66.5039L202.17 32.9039L200.433 33.8961L219.633 67.4961L221.37 66.5039ZM200.302 33.4V67H202.302V33.4H200.302ZM201.302 66H186.902V68H201.302V66ZM187.902 67V11H185.902V67H187.902ZM186.902 12H202.102V10H186.902V12ZM201.233 11.4961L220.433 45.0961L222.17 44.1039L202.97 10.5039L201.233 11.4961ZM222.302 44.6V11H220.302V44.6H222.302ZM221.302 12H235.702V10H221.302V12ZM234.702 11V67H236.702V11H234.702ZM292.539 66.2L292.628 67.196L293.539 67.1143V66.2H292.539ZM251.419 64.12L252.126 63.4129L252.126 63.4129L251.419 64.12ZM251.499 14.84L252.206 15.5471L252.206 15.5471L251.499 14.84ZM292.539 11H293.539V10H292.539V11ZM292.539 22.2V23.2H293.539V22.2H292.539ZM263.179 55.56L262.446 56.2405L262.471 56.2676L262.499 56.2928L263.179 55.56ZM269.659 56.6V57.6H269.679L269.699 57.5992L269.659 56.6ZM273.819 56.44L273.856 57.4393L273.856 57.4393L273.819 56.44ZM278.139 56.28L278.103 55.2806L278.102 55.2807L278.139 56.28ZM283.819 55.96L283.751 54.9623L283.749 54.9624L283.819 55.96ZM292.539 55.4H293.539V54.3366L292.478 54.4019L292.539 55.4ZM292.45 65.204C280.572 66.2692 270.738 66.8 262.939 66.8V68.8C270.82 68.8 280.719 68.2641 292.628 67.196L292.45 65.204ZM262.939 66.8C257.845 66.8 254.315 65.6022 252.126 63.4129L250.712 64.8271C253.429 67.5445 257.58 68.8 262.939 68.8V66.8ZM252.126 63.4129C249.937 61.2236 248.739 57.694 248.739 52.6H246.739C246.739 57.9594 247.995 62.1097 250.712 64.8271L252.126 63.4129ZM248.739 52.6V27H246.739V52.6H248.739ZM248.739 27C248.739 21.5165 249.971 17.7823 252.206 15.5471L250.792 14.1329C248.014 16.9111 246.739 21.2835 246.739 27H248.739ZM252.206 15.5471C254.498 13.2554 258.263 12 263.739 12V10C258.015 10 253.62 11.3046 250.792 14.1329L252.206 15.5471ZM263.739 12H292.539V10H263.739V12ZM291.539 11V22.2H293.539V11H291.539ZM292.539 21.2H266.939V23.2H292.539V21.2ZM266.939 21.2C265.185 21.2 263.686 21.6392 262.632 22.6929C261.578 23.7466 261.139 25.2459 261.139 27H263.139C263.139 25.5541 263.5 24.6534 264.046 24.1071C264.592 23.5608 265.493 23.2 266.939 23.2V21.2ZM261.139 27V52.6H263.139V27H261.139ZM261.139 52.6C261.139 54.0247 261.547 55.2725 262.446 56.2405L263.912 54.8795C263.424 54.3542 263.139 53.6287 263.139 52.6H261.139ZM262.499 56.2928C263.449 57.1755 264.634 57.6 265.979 57.6V55.6C265.084 55.6 264.402 55.3311 263.86 54.8272L262.499 56.2928ZM265.979 57.6C265.981 57.6 265.983 57.6 265.986 57.6C265.988 57.6 265.99 57.6 265.992 57.6C265.994 57.6 265.997 57.6 265.999 57.6C266.001 57.6 266.003 57.6 266.005 57.6C266.008 57.6 266.01 57.6 266.012 57.6C266.014 57.6 266.016 57.6 266.018 57.6C266.021 57.6 266.023 57.6 266.025 57.6C266.027 57.6 266.029 57.6 266.032 57.6C266.034 57.6 266.036 57.6 266.038 57.6C266.04 57.6 266.043 57.6 266.045 57.6C266.047 57.6 266.049 57.6 266.051 57.6C266.054 57.6 266.056 57.6 266.058 57.6C266.06 57.6 266.062 57.6 266.065 57.6C266.067 57.6 266.069 57.6 266.071 57.6C266.073 57.6 266.076 57.6 266.078 57.6C266.08 57.6 266.082 57.6 266.084 57.6C266.087 57.6 266.089 57.6 266.091 57.6C266.093 57.6 266.095 57.6 266.098 57.6C266.1 57.6 266.102 57.6 266.104 57.6C266.106 57.6 266.109 57.6 266.111 57.6C266.113 57.6 266.115 57.6 266.117 57.6C266.12 57.6 266.122 57.6 266.124 57.6C266.126 57.6 266.128 57.6 266.131 57.6C266.133 57.6 266.135 57.6 266.137 57.6C266.139 57.6 266.142 57.6 266.144 57.6C266.146 57.6 266.148 57.6 266.151 57.6C266.153 57.6 266.155 57.6 266.157 57.6C266.159 57.6 266.162 57.6 266.164 57.6C266.166 57.6 266.168 57.6 266.17 57.6C266.173 57.6 266.175 57.6 266.177 57.6C266.179 57.6 266.181 57.6 266.184 57.6C266.186 57.6 266.188 57.6 266.19 57.6C266.193 57.6 266.195 57.6 266.197 57.6C266.199 57.6 266.201 57.6 266.204 57.6C266.206 57.6 266.208 57.6 266.21 57.6C266.212 57.6 266.215 57.6 266.217 57.6C266.219 57.6 266.221 57.6 266.224 57.6C266.226 57.6 266.228 57.6 266.23 57.6C266.232 57.6 266.235 57.6 266.237 57.6C266.239 57.6 266.241 57.6 266.244 57.6C266.246 57.6 266.248 57.6 266.25 57.6C266.252 57.6 266.255 57.6 266.257 57.6C266.259 57.6 266.261 57.6 266.264 57.6C266.266 57.6 266.268 57.6 266.27 57.6C266.272 57.6 266.275 57.6 266.277 57.6C266.279 57.6 266.281 57.6 266.284 57.6C266.286 57.6 266.288 57.6 266.29 57.6C266.292 57.6 266.295 57.6 266.297 57.6C266.299 57.6 266.301 57.6 266.304 57.6C266.306 57.6 266.308 57.6 266.31 57.6C266.312 57.6 266.315 57.6 266.317 57.6C266.319 57.6 266.321 57.6 266.324 57.6C266.326 57.6 266.328 57.6 266.33 57.6C266.333 57.6 266.335 57.6 266.337 57.6C266.339 57.6 266.341 57.6 266.344 57.6C266.346 57.6 266.348 57.6 266.35 57.6C266.353 57.6 266.355 57.6 266.357 57.6C266.359 57.6 266.362 57.6 266.364 57.6C266.366 57.6 266.368 57.6 266.37 57.6C266.373 57.6 266.375 57.6 266.377 57.6C266.379 57.6 266.382 57.6 266.384 57.6C266.386 57.6 266.388 57.6 266.391 57.6C266.393 57.6 266.395 57.6 266.397 57.6C266.4 57.6 266.402 57.6 266.404 57.6C266.406 57.6 266.409 57.6 266.411 57.6C266.413 57.6 266.415 57.6 266.418 57.6C266.42 57.6 266.422 57.6 266.424 57.6C266.426 57.6 266.429 57.6 266.431 57.6C266.433 57.6 266.435 57.6 266.438 57.6C266.44 57.6 266.442 57.6 266.444 57.6C266.447 57.6 266.449 57.6 266.451 57.6C266.453 57.6 266.456 57.6 266.458 57.6C266.46 57.6 266.462 57.6 266.465 57.6C266.467 57.6 266.469 57.6 266.471 57.6C266.474 57.6 266.476 57.6 266.478 57.6C266.48 57.6 266.483 57.6 266.485 57.6C266.487 57.6 266.489 57.6 266.492 57.6C266.494 57.6 266.496 57.6 266.498 57.6C266.501 57.6 266.503 57.6 266.505 57.6C266.507 57.6 266.51 57.6 266.512 57.6C266.514 57.6 266.516 57.6 266.519 57.6C266.521 57.6 266.523 57.6 266.525 57.6C266.528 57.6 266.53 57.6 266.532 57.6C266.534 57.6 266.537 57.6 266.539 57.6C266.541 57.6 266.543 57.6 266.546 57.6C266.548 57.6 266.55 57.6 266.552 57.6C266.555 57.6 266.557 57.6 266.559 57.6C266.561 57.6 266.564 57.6 266.566 57.6C266.568 57.6 266.571 57.6 266.573 57.6C266.575 57.6 266.577 57.6 266.58 57.6C266.582 57.6 266.584 57.6 266.586 57.6C266.589 57.6 266.591 57.6 266.593 57.6C266.595 57.6 266.598 57.6 266.6 57.6C266.602 57.6 266.604 57.6 266.607 57.6C266.609 57.6 266.611 57.6 266.614 57.6C266.616 57.6 266.618 57.6 266.62 57.6C266.623 57.6 266.625 57.6 266.627 57.6C266.629 57.6 266.632 57.6 266.634 57.6C266.636 57.6 266.638 57.6 266.641 57.6C266.643 57.6 266.645 57.6 266.648 57.6C266.65 57.6 266.652 57.6 266.654 57.6C266.657 57.6 266.659 57.6 266.661 57.6C266.663 57.6 266.666 57.6 266.668 57.6C266.67 57.6 266.672 57.6 266.675 57.6C266.677 57.6 266.679 57.6 266.682 57.6C266.684 57.6 266.686 57.6 266.688 57.6C266.691 57.6 266.693 57.6 266.695 57.6C266.698 57.6 266.7 57.6 266.702 57.6C266.704 57.6 266.707 57.6 266.709 57.6C266.711 57.6 266.713 57.6 266.716 57.6C266.718 57.6 266.72 57.6 266.723 57.6C266.725 57.6 266.727 57.6 266.729 57.6C266.732 57.6 266.734 57.6 266.736 57.6C266.738 57.6 266.741 57.6 266.743 57.6C266.745 57.6 266.748 57.6 266.75 57.6C266.752 57.6 266.754 57.6 266.757 57.6C266.759 57.6 266.761 57.6 266.764 57.6C266.766 57.6 266.768 57.6 266.77 57.6C266.773 57.6 266.775 57.6 266.777 57.6C266.78 57.6 266.782 57.6 266.784 57.6C266.786 57.6 266.789 57.6 266.791 57.6C266.793 57.6 266.796 57.6 266.798 57.6C266.8 57.6 266.802 57.6 266.805 57.6C266.807 57.6 266.809 57.6 266.812 57.6C266.814 57.6 266.816 57.6 266.818 57.6C266.821 57.6 266.823 57.6 266.825 57.6C266.828 57.6 266.83 57.6 266.832 57.6C266.834 57.6 266.837 57.6 266.839 57.6C266.841 57.6 266.844 57.6 266.846 57.6C266.848 57.6 266.851 57.6 266.853 57.6C266.855 57.6 266.857 57.6 266.86 57.6C266.862 57.6 266.864 57.6 266.867 57.6C266.869 57.6 266.871 57.6 266.873 57.6C266.876 57.6 266.878 57.6 266.88 57.6C266.883 57.6 266.885 57.6 266.887 57.6C266.89 57.6 266.892 57.6 266.894 57.6C266.896 57.6 266.899 57.6 266.901 57.6C266.903 57.6 266.906 57.6 266.908 57.6C266.91 57.6 266.913 57.6 266.915 57.6C266.917 57.6 266.919 57.6 266.922 57.6C266.924 57.6 266.926 57.6 266.929 57.6C266.931 57.6 266.933 57.6 266.936 57.6C266.938 57.6 266.94 57.6 266.942 57.6C266.945 57.6 266.947 57.6 266.949 57.6C266.952 57.6 266.954 57.6 266.956 57.6C266.959 57.6 266.961 57.6 266.963 57.6C266.966 57.6 266.968 57.6 266.97 57.6C266.972 57.6 266.975 57.6 266.977 57.6C266.979 57.6 266.982 57.6 266.984 57.6C266.986 57.6 266.989 57.6 266.991 57.6C266.993 57.6 266.996 57.6 266.998 57.6C267 57.6 267.002 57.6 267.005 57.6C267.007 57.6 267.009 57.6 267.012 57.6C267.014 57.6 267.016 57.6 267.019 57.6C267.021 57.6 267.023 57.6 267.026 57.6C267.028 57.6 267.03 57.6 267.033 57.6C267.035 57.6 267.037 57.6 267.039 57.6C267.042 57.6 267.044 57.6 267.046 57.6C267.049 57.6 267.051 57.6 267.053 57.6C267.056 57.6 267.058 57.6 267.06 57.6C267.063 57.6 267.065 57.6 267.067 57.6C267.07 57.6 267.072 57.6 267.074 57.6C267.077 57.6 267.079 57.6 267.081 57.6C267.084 57.6 267.086 57.6 267.088 57.6C267.09 57.6 267.093 57.6 267.095 57.6C267.097 57.6 267.1 57.6 267.102 57.6C267.104 57.6 267.107 57.6 267.109 57.6C267.111 57.6 267.114 57.6 267.116 57.6C267.118 57.6 267.121 57.6 267.123 57.6C267.125 57.6 267.128 57.6 267.13 57.6C267.132 57.6 267.135 57.6 267.137 57.6C267.139 57.6 267.142 57.6 267.144 57.6C267.146 57.6 267.149 57.6 267.151 57.6C267.153 57.6 267.156 57.6 267.158 57.6C267.16 57.6 267.163 57.6 267.165 57.6C267.167 57.6 267.17 57.6 267.172 57.6C267.174 57.6 267.177 57.6 267.179 57.6C267.181 57.6 267.184 57.6 267.186 57.6C267.188 57.6 267.191 57.6 267.193 57.6C267.195 57.6 267.198 57.6 267.2 57.6C267.202 57.6 267.205 57.6 267.207 57.6C267.209 57.6 267.212 57.6 267.214 57.6C267.216 57.6 267.219 57.6 267.221 57.6C267.223 57.6 267.226 57.6 267.228 57.6C267.23 57.6 267.233 57.6 267.235 57.6C267.237 57.6 267.24 57.6 267.242 57.6C267.244 57.6 267.247 57.6 267.249 57.6C267.251 57.6 267.254 57.6 267.256 57.6C267.258 57.6 267.261 57.6 267.263 57.6C267.265 57.6 267.268 57.6 267.27 57.6C267.272 57.6 267.275 57.6 267.277 57.6C267.279 57.6 267.282 57.6 267.284 57.6C267.286 57.6 267.289 57.6 267.291 57.6C267.293 57.6 267.296 57.6 267.298 57.6C267.3 57.6 267.303 57.6 267.305 57.6C267.308 57.6 267.31 57.6 267.312 57.6C267.315 57.6 267.317 57.6 267.319 57.6C267.322 57.6 267.324 57.6 267.326 57.6C267.329 57.6 267.331 57.6 267.333 57.6C267.336 57.6 267.338 57.6 267.34 57.6C267.343 57.6 267.345 57.6 267.347 57.6C267.35 57.6 267.352 57.6 267.354 57.6C267.357 57.6 267.359 57.6 267.362 57.6C267.364 57.6 267.366 57.6 267.369 57.6C267.371 57.6 267.373 57.6 267.376 57.6C267.378 57.6 267.38 57.6 267.383 57.6C267.385 57.6 267.387 57.6 267.39 57.6C267.392 57.6 267.395 57.6 267.397 57.6C267.399 57.6 267.402 57.6 267.404 57.6C267.406 57.6 267.409 57.6 267.411 57.6C267.413 57.6 267.416 57.6 267.418 57.6C267.42 57.6 267.423 57.6 267.425 57.6C267.428 57.6 267.43 57.6 267.432 57.6C267.435 57.6 267.437 57.6 267.439 57.6C267.442 57.6 267.444 57.6 267.446 57.6C267.449 57.6 267.451 57.6 267.454 57.6C267.456 57.6 267.458 57.6 267.461 57.6C267.463 57.6 267.465 57.6 267.468 57.6C267.47 57.6 267.472 57.6 267.475 57.6C267.477 57.6 267.48 57.6 267.482 57.6C267.484 57.6 267.487 57.6 267.489 57.6C267.491 57.6 267.494 57.6 267.496 57.6C267.498 57.6 267.501 57.6 267.503 57.6C267.506 57.6 267.508 57.6 267.51 57.6C267.513 57.6 267.515 57.6 267.517 57.6C267.52 57.6 267.522 57.6 267.525 57.6C267.527 57.6 267.529 57.6 267.532 57.6C267.534 57.6 267.536 57.6 267.539 57.6C267.541 57.6 267.544 57.6 267.546 57.6C267.548 57.6 267.551 57.6 267.553 57.6C267.555 57.6 267.558 57.6 267.56 57.6C267.563 57.6 267.565 57.6 267.567 57.6C267.57 57.6 267.572 57.6 267.574 57.6C267.577 57.6 267.579 57.6 267.582 57.6C267.584 57.6 267.586 57.6 267.589 57.6C267.591 57.6 267.593 57.6 267.596 57.6C267.598 57.6 267.601 57.6 267.603 57.6C267.605 57.6 267.608 57.6 267.61 57.6C267.612 57.6 267.615 57.6 267.617 57.6C267.62 57.6 267.622 57.6 267.624 57.6C267.627 57.6 267.629 57.6 267.632 57.6C267.634 57.6 267.636 57.6 267.639 57.6C267.641 57.6 267.643 57.6 267.646 57.6C267.648 57.6 267.651 57.6 267.653 57.6C267.655 57.6 267.658 57.6 267.66 57.6C267.663 57.6 267.665 57.6 267.667 57.6C267.67 57.6 267.672 57.6 267.674 57.6C267.677 57.6 267.679 57.6 267.682 57.6C267.684 57.6 267.686 57.6 267.689 57.6C267.691 57.6 267.694 57.6 267.696 57.6C267.698 57.6 267.701 57.6 267.703 57.6C267.706 57.6 267.708 57.6 267.71 57.6C267.713 57.6 267.715 57.6 267.718 57.6C267.72 57.6 267.722 57.6 267.725 57.6C267.727 57.6 267.729 57.6 267.732 57.6C267.734 57.6 267.737 57.6 267.739 57.6C267.741 57.6 267.744 57.6 267.746 57.6C267.749 57.6 267.751 57.6 267.753 57.6C267.756 57.6 267.758 57.6 267.761 57.6C267.763 57.6 267.765 57.6 267.768 57.6C267.77 57.6 267.773 57.6 267.775 57.6C267.777 57.6 267.78 57.6 267.782 57.6C267.785 57.6 267.787 57.6 267.789 57.6C267.792 57.6 267.794 57.6 267.797 57.6C267.799 57.6 267.801 57.6 267.804 57.6C267.806 57.6 267.809 57.6 267.811 57.6C267.813 57.6 267.816 57.6 267.818 57.6C267.821 57.6 267.823 57.6 267.825 57.6C267.828 57.6 267.83 57.6 267.833 57.6C267.835 57.6 267.838 57.6 267.84 57.6C267.842 57.6 267.845 57.6 267.847 57.6C267.85 57.6 267.852 57.6 267.854 57.6C267.857 57.6 267.859 57.6 267.862 57.6C267.864 57.6 267.866 57.6 267.869 57.6C267.871 57.6 267.874 57.6 267.876 57.6C267.878 57.6 267.881 57.6 267.883 57.6C267.886 57.6 267.888 57.6 267.891 57.6C267.893 57.6 267.895 57.6 267.898 57.6C267.9 57.6 267.903 57.6 267.905 57.6C267.907 57.6 267.91 57.6 267.912 57.6C267.915 57.6 267.917 57.6 267.92 57.6C267.922 57.6 267.924 57.6 267.927 57.6C267.929 57.6 267.932 57.6 267.934 57.6C267.936 57.6 267.939 57.6 267.941 57.6C267.944 57.6 267.946 57.6 267.949 57.6C267.951 57.6 267.953 57.6 267.956 57.6C267.958 57.6 267.961 57.6 267.963 57.6C267.965 57.6 267.968 57.6 267.97 57.6C267.973 57.6 267.975 57.6 267.978 57.6C267.98 57.6 267.982 57.6 267.985 57.6C267.987 57.6 267.99 57.6 267.992 57.6C267.995 57.6 267.997 57.6 267.999 57.6C268.002 57.6 268.004 57.6 268.007 57.6C268.009 57.6 268.012 57.6 268.014 57.6C268.016 57.6 268.019 57.6 268.021 57.6C268.024 57.6 268.026 57.6 268.029 57.6C268.031 57.6 268.033 57.6 268.036 57.6C268.038 57.6 268.041 57.6 268.043 57.6C268.046 57.6 268.048 57.6 268.05 57.6C268.053 57.6 268.055 57.6 268.058 57.6C268.06 57.6 268.063 57.6 268.065 57.6C268.067 57.6 268.07 57.6 268.072 57.6C268.075 57.6 268.077 57.6 268.08 57.6C268.082 57.6 268.084 57.6 268.087 57.6C268.089 57.6 268.092 57.6 268.094 57.6C268.097 57.6 268.099 57.6 268.101 57.6C268.104 57.6 268.106 57.6 268.109 57.6C268.111 57.6 268.114 57.6 268.116 57.6C268.119 57.6 268.121 57.6 268.123 57.6C268.126 57.6 268.128 57.6 268.131 57.6C268.133 57.6 268.136 57.6 268.138 57.6C268.141 57.6 268.143 57.6 268.145 57.6C268.148 57.6 268.15 57.6 268.153 57.6C268.155 57.6 268.158 57.6 268.16 57.6C268.162 57.6 268.165 57.6 268.167 57.6C268.17 57.6 268.172 57.6 268.175 57.6C268.177 57.6 268.18 57.6 268.182 57.6C268.184 57.6 268.187 57.6 268.189 57.6C268.192 57.6 268.194 57.6 268.197 57.6C268.199 57.6 268.202 57.6 268.204 57.6C268.207 57.6 268.209 57.6 268.211 57.6C268.214 57.6 268.216 57.6 268.219 57.6C268.221 57.6 268.224 57.6 268.226 57.6C268.229 57.6 268.231 57.6 268.233 57.6C268.236 57.6 268.238 57.6 268.241 57.6C268.243 57.6 268.246 57.6 268.248 57.6C268.251 57.6 268.253 57.6 268.256 57.6C268.258 57.6 268.26 57.6 268.263 57.6C268.265 57.6 268.268 57.6 268.27 57.6C268.273 57.6 268.275 57.6 268.278 57.6C268.28 57.6 268.283 57.6 268.285 57.6C268.287 57.6 268.29 57.6 268.292 57.6C268.295 57.6 268.297 57.6 268.3 57.6C268.302 57.6 268.305 57.6 268.307 57.6C268.31 57.6 268.312 57.6 268.314 57.6C268.317 57.6 268.319 57.6 268.322 57.6C268.324 57.6 268.327 57.6 268.329 57.6C268.332 57.6 268.334 57.6 268.337 57.6C268.339 57.6 268.342 57.6 268.344 57.6C268.346 57.6 268.349 57.6 268.351 57.6C268.354 57.6 268.356 57.6 268.359 57.6C268.361 57.6 268.364 57.6 268.366 57.6C268.369 57.6 268.371 57.6 268.374 57.6C268.376 57.6 268.379 57.6 268.381 57.6C268.383 57.6 268.386 57.6 268.388 57.6C268.391 57.6 268.393 57.6 268.396 57.6C268.398 57.6 268.401 57.6 268.403 57.6C268.406 57.6 268.408 57.6 268.411 57.6C268.413 57.6 268.416 57.6 268.418 57.6C268.421 57.6 268.423 57.6 268.425 57.6C268.428 57.6 268.43 57.6 268.433 57.6C268.435 57.6 268.438 57.6 268.44 57.6C268.443 57.6 268.445 57.6 268.448 57.6C268.45 57.6 268.453 57.6 268.455 57.6C268.458 57.6 268.46 57.6 268.463 57.6C268.465 57.6 268.468 57.6 268.47 57.6C268.472 57.6 268.475 57.6 268.477 57.6C268.48 57.6 268.482 57.6 268.485 57.6C268.487 57.6 268.49 57.6 268.492 57.6C268.495 57.6 268.497 57.6 268.5 57.6C268.502 57.6 268.505 57.6 268.507 57.6C268.51 57.6 268.512 57.6 268.515 57.6C268.517 57.6 268.52 57.6 268.522 57.6C268.525 57.6 268.527 57.6 268.53 57.6C268.532 57.6 268.535 57.6 268.537 57.6C268.539 57.6 268.542 57.6 268.544 57.6C268.547 57.6 268.549 57.6 268.552 57.6C268.554 57.6 268.557 57.6 268.559 57.6C268.562 57.6 268.564 57.6 268.567 57.6C268.569 57.6 268.572 57.6 268.574 57.6C268.577 57.6 268.579 57.6 268.582 57.6C268.584 57.6 268.587 57.6 268.589 57.6C268.592 57.6 268.594 57.6 268.597 57.6C268.599 57.6 268.602 57.6 268.604 57.6C268.607 57.6 268.609 57.6 268.612 57.6C268.614 57.6 268.617 57.6 268.619 57.6C268.622 57.6 268.624 57.6 268.627 57.6C268.629 57.6 268.632 57.6 268.634 57.6C268.637 57.6 268.639 57.6 268.642 57.6C268.644 57.6 268.647 57.6 268.649 57.6C268.652 57.6 268.654 57.6 268.657 57.6C268.659 57.6 268.662 57.6 268.664 57.6C268.667 57.6 268.669 57.6 268.672 57.6C268.674 57.6 268.677 57.6 268.679 57.6C268.682 57.6 268.684 57.6 268.687 57.6C268.689 57.6 268.692 57.6 268.694 57.6C268.697 57.6 268.699 57.6 268.702 57.6C268.704 57.6 268.707 57.6 268.709 57.6C268.712 57.6 268.714 57.6 268.717 57.6C268.719 57.6 268.722 57.6 268.724 57.6C268.727 57.6 268.729 57.6 268.732 57.6C268.734 57.6 268.737 57.6 268.739 57.6C268.742 57.6 268.744 57.6 268.747 57.6C268.749 57.6 268.752 57.6 268.754 57.6C268.757 57.6 268.759 57.6 268.762 57.6C268.764 57.6 268.767 57.6 268.769 57.6C268.772 57.6 268.774 57.6 268.777 57.6C268.779 57.6 268.782 57.6 268.784 57.6C268.787 57.6 268.789 57.6 268.792 57.6C268.794 57.6 268.797 57.6 268.799 57.6C268.802 57.6 268.804 57.6 268.807 57.6C268.809 57.6 268.812 57.6 268.814 57.6C268.817 57.6 268.819 57.6 268.822 57.6C268.825 57.6 268.827 57.6 268.83 57.6C268.832 57.6 268.835 57.6 268.837 57.6C268.84 57.6 268.842 57.6 268.845 57.6C268.847 57.6 268.85 57.6 268.852 57.6C268.855 57.6 268.857 57.6 268.86 57.6C268.862 57.6 268.865 57.6 268.867 57.6C268.87 57.6 268.872 57.6 268.875 57.6C268.877 57.6 268.88 57.6 268.882 57.6C268.885 57.6 268.887 57.6 268.89 57.6C268.893 57.6 268.895 57.6 268.898 57.6C268.9 57.6 268.903 57.6 268.905 57.6C268.908 57.6 268.91 57.6 268.913 57.6C268.915 57.6 268.918 57.6 268.92 57.6C268.923 57.6 268.925 57.6 268.928 57.6C268.93 57.6 268.933 57.6 268.935 57.6C268.938 57.6 268.941 57.6 268.943 57.6C268.946 57.6 268.948 57.6 268.951 57.6C268.953 57.6 268.956 57.6 268.958 57.6C268.961 57.6 268.963 57.6 268.966 57.6C268.968 57.6 268.971 57.6 268.973 57.6C268.976 57.6 268.978 57.6 268.981 57.6C268.984 57.6 268.986 57.6 268.989 57.6C268.991 57.6 268.994 57.6 268.996 57.6C268.999 57.6 269.001 57.6 269.004 57.6C269.006 57.6 269.009 57.6 269.011 57.6C269.014 57.6 269.016 57.6 269.019 57.6C269.022 57.6 269.024 57.6 269.027 57.6C269.029 57.6 269.032 57.6 269.034 57.6C269.037 57.6 269.039 57.6 269.042 57.6C269.044 57.6 269.047 57.6 269.049 57.6C269.052 57.6 269.055 57.6 269.057 57.6C269.06 57.6 269.062 57.6 269.065 57.6C269.067 57.6 269.07 57.6 269.072 57.6C269.075 57.6 269.077 57.6 269.08 57.6C269.083 57.6 269.085 57.6 269.088 57.6C269.09 57.6 269.093 57.6 269.095 57.6C269.098 57.6 269.1 57.6 269.103 57.6C269.105 57.6 269.108 57.6 269.111 57.6C269.113 57.6 269.116 57.6 269.118 57.6C269.121 57.6 269.123 57.6 269.126 57.6C269.128 57.6 269.131 57.6 269.133 57.6C269.136 57.6 269.139 57.6 269.141 57.6C269.144 57.6 269.146 57.6 269.149 57.6C269.151 57.6 269.154 57.6 269.156 57.6C269.159 57.6 269.162 57.6 269.164 57.6C269.167 57.6 269.169 57.6 269.172 57.6C269.174 57.6 269.177 57.6 269.179 57.6C269.182 57.6 269.184 57.6 269.187 57.6C269.19 57.6 269.192 57.6 269.195 57.6C269.197 57.6 269.2 57.6 269.202 57.6C269.205 57.6 269.207 57.6 269.21 57.6C269.213 57.6 269.215 57.6 269.218 57.6C269.22 57.6 269.223 57.6 269.225 57.6C269.228 57.6 269.231 57.6 269.233 57.6C269.236 57.6 269.238 57.6 269.241 57.6C269.243 57.6 269.246 57.6 269.248 57.6C269.251 57.6 269.254 57.6 269.256 57.6C269.259 57.6 269.261 57.6 269.264 57.6C269.266 57.6 269.269 57.6 269.271 57.6C269.274 57.6 269.277 57.6 269.279 57.6C269.282 57.6 269.284 57.6 269.287 57.6C269.289 57.6 269.292 57.6 269.295 57.6C269.297 57.6 269.3 57.6 269.302 57.6C269.305 57.6 269.307 57.6 269.31 57.6C269.313 57.6 269.315 57.6 269.318 57.6C269.32 57.6 269.323 57.6 269.325 57.6C269.328 57.6 269.331 57.6 269.333 57.6C269.336 57.6 269.338 57.6 269.341 57.6C269.343 57.6 269.346 57.6 269.349 57.6C269.351 57.6 269.354 57.6 269.356 57.6C269.359 57.6 269.361 57.6 269.364 57.6C269.367 57.6 269.369 57.6 269.372 57.6C269.374 57.6 269.377 57.6 269.379 57.6C269.382 57.6 269.385 57.6 269.387 57.6C269.39 57.6 269.392 57.6 269.395 57.6C269.397 57.6 269.4 57.6 269.403 57.6C269.405 57.6 269.408 57.6 269.41 57.6C269.413 57.6 269.415 57.6 269.418 57.6C269.421 57.6 269.423 57.6 269.426 57.6C269.428 57.6 269.431 57.6 269.434 57.6C269.436 57.6 269.439 57.6 269.441 57.6C269.444 57.6 269.446 57.6 269.449 57.6C269.452 57.6 269.454 57.6 269.457 57.6C269.459 57.6 269.462 57.6 269.465 57.6C269.467 57.6 269.47 57.6 269.472 57.6C269.475 57.6 269.477 57.6 269.48 57.6C269.483 57.6 269.485 57.6 269.488 57.6C269.49 57.6 269.493 57.6 269.496 57.6C269.498 57.6 269.501 57.6 269.503 57.6C269.506 57.6 269.508 57.6 269.511 57.6C269.514 57.6 269.516 57.6 269.519 57.6C269.521 57.6 269.524 57.6 269.527 57.6C269.529 57.6 269.532 57.6 269.534 57.6C269.537 57.6 269.54 57.6 269.542 57.6C269.545 57.6 269.547 57.6 269.55 57.6C269.553 57.6 269.555 57.6 269.558 57.6C269.56 57.6 269.563 57.6 269.565 57.6C269.568 57.6 269.571 57.6 269.573 57.6C269.576 57.6 269.578 57.6 269.581 57.6C269.584 57.6 269.586 57.6 269.589 57.6C269.591 57.6 269.594 57.6 269.597 57.6C269.599 57.6 269.602 57.6 269.604 57.6C269.607 57.6 269.61 57.6 269.612 57.6C269.615 57.6 269.617 57.6 269.62 57.6C269.623 57.6 269.625 57.6 269.628 57.6C269.63 57.6 269.633 57.6 269.636 57.6C269.638 57.6 269.641 57.6 269.643 57.6C269.646 57.6 269.649 57.6 269.651 57.6C269.654 57.6 269.656 57.6 269.659 57.6V55.6C269.656 55.6 269.654 55.6 269.651 55.6C269.649 55.6 269.646 55.6 269.643 55.6C269.641 55.6 269.638 55.6 269.636 55.6C269.633 55.6 269.63 55.6 269.628 55.6C269.625 55.6 269.623 55.6 269.62 55.6C269.617 55.6 269.615 55.6 269.612 55.6C269.61 55.6 269.607 55.6 269.604 55.6C269.602 55.6 269.599 55.6 269.597 55.6C269.594 55.6 269.591 55.6 269.589 55.6C269.586 55.6 269.584 55.6 269.581 55.6C269.578 55.6 269.576 55.6 269.573 55.6C269.571 55.6 269.568 55.6 269.565 55.6C269.563 55.6 269.56 55.6 269.558 55.6C269.555 55.6 269.553 55.6 269.55 55.6C269.547 55.6 269.545 55.6 269.542 55.6C269.54 55.6 269.537 55.6 269.534 55.6C269.532 55.6 269.529 55.6 269.527 55.6C269.524 55.6 269.521 55.6 269.519 55.6C269.516 55.6 269.514 55.6 269.511 55.6C269.508 55.6 269.506 55.6 269.503 55.6C269.501 55.6 269.498 55.6 269.496 55.6C269.493 55.6 269.49 55.6 269.488 55.6C269.485 55.6 269.483 55.6 269.48 55.6C269.477 55.6 269.475 55.6 269.472 55.6C269.47 55.6 269.467 55.6 269.465 55.6C269.462 55.6 269.459 55.6 269.457 55.6C269.454 55.6 269.452 55.6 269.449 55.6C269.446 55.6 269.444 55.6 269.441 55.6C269.439 55.6 269.436 55.6 269.434 55.6C269.431 55.6 269.428 55.6 269.426 55.6C269.423 55.6 269.421 55.6 269.418 55.6C269.415 55.6 269.413 55.6 269.41 55.6C269.408 55.6 269.405 55.6 269.403 55.6C269.4 55.6 269.397 55.6 269.395 55.6C269.392 55.6 269.39 55.6 269.387 55.6C269.385 55.6 269.382 55.6 269.379 55.6C269.377 55.6 269.374 55.6 269.372 55.6C269.369 55.6 269.367 55.6 269.364 55.6C269.361 55.6 269.359 55.6 269.356 55.6C269.354 55.6 269.351 55.6 269.349 55.6C269.346 55.6 269.343 55.6 269.341 55.6C269.338 55.6 269.336 55.6 269.333 55.6C269.331 55.6 269.328 55.6 269.325 55.6C269.323 55.6 269.32 55.6 269.318 55.6C269.315 55.6 269.313 55.6 269.31 55.6C269.307 55.6 269.305 55.6 269.302 55.6C269.3 55.6 269.297 55.6 269.295 55.6C269.292 55.6 269.289 55.6 269.287 55.6C269.284 55.6 269.282 55.6 269.279 55.6C269.277 55.6 269.274 55.6 269.271 55.6C269.269 55.6 269.266 55.6 269.264 55.6C269.261 55.6 269.259 55.6 269.256 55.6C269.254 55.6 269.251 55.6 269.248 55.6C269.246 55.6 269.243 55.6 269.241 55.6C269.238 55.6 269.236 55.6 269.233 55.6C269.231 55.6 269.228 55.6 269.225 55.6C269.223 55.6 269.22 55.6 269.218 55.6C269.215 55.6 269.213 55.6 269.21 55.6C269.207 55.6 269.205 55.6 269.202 55.6C269.2 55.6 269.197 55.6 269.195 55.6C269.192 55.6 269.19 55.6 269.187 55.6C269.184 55.6 269.182 55.6 269.179 55.6C269.177 55.6 269.174 55.6 269.172 55.6C269.169 55.6 269.167 55.6 269.164 55.6C269.162 55.6 269.159 55.6 269.156 55.6C269.154 55.6 269.151 55.6 269.149 55.6C269.146 55.6 269.144 55.6 269.141 55.6C269.139 55.6 269.136 55.6 269.133 55.6C269.131 55.6 269.128 55.6 269.126 55.6C269.123 55.6 269.121 55.6 269.118 55.6C269.116 55.6 269.113 55.6 269.111 55.6C269.108 55.6 269.105 55.6 269.103 55.6C269.1 55.6 269.098 55.6 269.095 55.6C269.093 55.6 269.09 55.6 269.088 55.6C269.085 55.6 269.083 55.6 269.08 55.6C269.077 55.6 269.075 55.6 269.072 55.6C269.07 55.6 269.067 55.6 269.065 55.6C269.062 55.6 269.06 55.6 269.057 55.6C269.055 55.6 269.052 55.6 269.049 55.6C269.047 55.6 269.044 55.6 269.042 55.6C269.039 55.6 269.037 55.6 269.034 55.6C269.032 55.6 269.029 55.6 269.027 55.6C269.024 55.6 269.022 55.6 269.019 55.6C269.016 55.6 269.014 55.6 269.011 55.6C269.009 55.6 269.006 55.6 269.004 55.6C269.001 55.6 268.999 55.6 268.996 55.6C268.994 55.6 268.991 55.6 268.989 55.6C268.986 55.6 268.984 55.6 268.981 55.6C268.978 55.6 268.976 55.6 268.973 55.6C268.971 55.6 268.968 55.6 268.966 55.6C268.963 55.6 268.961 55.6 268.958 55.6C268.956 55.6 268.953 55.6 268.951 55.6C268.948 55.6 268.946 55.6 268.943 55.6C268.941 55.6 268.938 55.6 268.935 55.6C268.933 55.6 268.93 55.6 268.928 55.6C268.925 55.6 268.923 55.6 268.92 55.6C268.918 55.6 268.915 55.6 268.913 55.6C268.91 55.6 268.908 55.6 268.905 55.6C268.903 55.6 268.9 55.6 268.898 55.6C268.895 55.6 268.893 55.6 268.89 55.6C268.887 55.6 268.885 55.6 268.882 55.6C268.88 55.6 268.877 55.6 268.875 55.6C268.872 55.6 268.87 55.6 268.867 55.6C268.865 55.6 268.862 55.6 268.86 55.6C268.857 55.6 268.855 55.6 268.852 55.6C268.85 55.6 268.847 55.6 268.845 55.6C268.842 55.6 268.84 55.6 268.837 55.6C268.835 55.6 268.832 55.6 268.83 55.6C268.827 55.6 268.825 55.6 268.822 55.6C268.819 55.6 268.817 55.6 268.814 55.6C268.812 55.6 268.809 55.6 268.807 55.6C268.804 55.6 268.802 55.6 268.799 55.6C268.797 55.6 268.794 55.6 268.792 55.6C268.789 55.6 268.787 55.6 268.784 55.6C268.782 55.6 268.779 55.6 268.777 55.6C268.774 55.6 268.772 55.6 268.769 55.6C268.767 55.6 268.764 55.6 268.762 55.6C268.759 55.6 268.757 55.6 268.754 55.6C268.752 55.6 268.749 55.6 268.747 55.6C268.744 55.6 268.742 55.6 268.739 55.6C268.737 55.6 268.734 55.6 268.732 55.6C268.729 55.6 268.727 55.6 268.724 55.6C268.722 55.6 268.719 55.6 268.717 55.6C268.714 55.6 268.712 55.6 268.709 55.6C268.707 55.6 268.704 55.6 268.702 55.6C268.699 55.6 268.697 55.6 268.694 55.6C268.692 55.6 268.689 55.6 268.687 55.6C268.684 55.6 268.682 55.6 268.679 55.6C268.677 55.6 268.674 55.6 268.672 55.6C268.669 55.6 268.667 55.6 268.664 55.6C268.662 55.6 268.659 55.6 268.657 55.6C268.654 55.6 268.652 55.6 268.649 55.6C268.647 55.6 268.644 55.6 268.642 55.6C268.639 55.6 268.637 55.6 268.634 55.6C268.632 55.6 268.629 55.6 268.627 55.6C268.624 55.6 268.622 55.6 268.619 55.6C268.617 55.6 268.614 55.6 268.612 55.6C268.609 55.6 268.607 55.6 268.604 55.6C268.602 55.6 268.599 55.6 268.597 55.6C268.594 55.6 268.592 55.6 268.589 55.6C268.587 55.6 268.584 55.6 268.582 55.6C268.579 55.6 268.577 55.6 268.574 55.6C268.572 55.6 268.569 55.6 268.567 55.6C268.564 55.6 268.562 55.6 268.559 55.6C268.557 55.6 268.554 55.6 268.552 55.6C268.549 55.6 268.547 55.6 268.544 55.6C268.542 55.6 268.539 55.6 268.537 55.6C268.535 55.6 268.532 55.6 268.53 55.6C268.527 55.6 268.525 55.6 268.522 55.6C268.52 55.6 268.517 55.6 268.515 55.6C268.512 55.6 268.51 55.6 268.507 55.6C268.505 55.6 268.502 55.6 268.5 55.6C268.497 55.6 268.495 55.6 268.492 55.6C268.49 55.6 268.487 55.6 268.485 55.6C268.482 55.6 268.48 55.6 268.477 55.6C268.475 55.6 268.472 55.6 268.47 55.6C268.468 55.6 268.465 55.6 268.463 55.6C268.46 55.6 268.458 55.6 268.455 55.6C268.453 55.6 268.45 55.6 268.448 55.6C268.445 55.6 268.443 55.6 268.44 55.6C268.438 55.6 268.435 55.6 268.433 55.6C268.43 55.6 268.428 55.6 268.425 55.6C268.423 55.6 268.421 55.6 268.418 55.6C268.416 55.6 268.413 55.6 268.411 55.6C268.408 55.6 268.406 55.6 268.403 55.6C268.401 55.6 268.398 55.6 268.396 55.6C268.393 55.6 268.391 55.6 268.388 55.6C268.386 55.6 268.383 55.6 268.381 55.6C268.379 55.6 268.376 55.6 268.374 55.6C268.371 55.6 268.369 55.6 268.366 55.6C268.364 55.6 268.361 55.6 268.359 55.6C268.356 55.6 268.354 55.6 268.351 55.6C268.349 55.6 268.346 55.6 268.344 55.6C268.342 55.6 268.339 55.6 268.337 55.6C268.334 55.6 268.332 55.6 268.329 55.6C268.327 55.6 268.324 55.6 268.322 55.6C268.319 55.6 268.317 55.6 268.314 55.6C268.312 55.6 268.31 55.6 268.307 55.6C268.305 55.6 268.302 55.6 268.3 55.6C268.297 55.6 268.295 55.6 268.292 55.6C268.29 55.6 268.287 55.6 268.285 55.6C268.283 55.6 268.28 55.6 268.278 55.6C268.275 55.6 268.273 55.6 268.27 55.6C268.268 55.6 268.265 55.6 268.263 55.6C268.26 55.6 268.258 55.6 268.256 55.6C268.253 55.6 268.251 55.6 268.248 55.6C268.246 55.6 268.243 55.6 268.241 55.6C268.238 55.6 268.236 55.6 268.233 55.6C268.231 55.6 268.229 55.6 268.226 55.6C268.224 55.6 268.221 55.6 268.219 55.6C268.216 55.6 268.214 55.6 268.211 55.6C268.209 55.6 268.207 55.6 268.204 55.6C268.202 55.6 268.199 55.6 268.197 55.6C268.194 55.6 268.192 55.6 268.189 55.6C268.187 55.6 268.184 55.6 268.182 55.6C268.18 55.6 268.177 55.6 268.175 55.6C268.172 55.6 268.17 55.6 268.167 55.6C268.165 55.6 268.162 55.6 268.16 55.6C268.158 55.6 268.155 55.6 268.153 55.6C268.15 55.6 268.148 55.6 268.145 55.6C268.143 55.6 268.141 55.6 268.138 55.6C268.136 55.6 268.133 55.6 268.131 55.6C268.128 55.6 268.126 55.6 268.123 55.6C268.121 55.6 268.119 55.6 268.116 55.6C268.114 55.6 268.111 55.6 268.109 55.6C268.106 55.6 268.104 55.6 268.101 55.6C268.099 55.6 268.097 55.6 268.094 55.6C268.092 55.6 268.089 55.6 268.087 55.6C268.084 55.6 268.082 55.6 268.08 55.6C268.077 55.6 268.075 55.6 268.072 55.6C268.07 55.6 268.067 55.6 268.065 55.6C268.063 55.6 268.06 55.6 268.058 55.6C268.055 55.6 268.053 55.6 268.05 55.6C268.048 55.6 268.046 55.6 268.043 55.6C268.041 55.6 268.038 55.6 268.036 55.6C268.033 55.6 268.031 55.6 268.029 55.6C268.026 55.6 268.024 55.6 268.021 55.6C268.019 55.6 268.016 55.6 268.014 55.6C268.012 55.6 268.009 55.6 268.007 55.6C268.004 55.6 268.002 55.6 267.999 55.6C267.997 55.6 267.995 55.6 267.992 55.6C267.99 55.6 267.987 55.6 267.985 55.6C267.982 55.6 267.98 55.6 267.978 55.6C267.975 55.6 267.973 55.6 267.97 55.6C267.968 55.6 267.965 55.6 267.963 55.6C267.961 55.6 267.958 55.6 267.956 55.6C267.953 55.6 267.951 55.6 267.949 55.6C267.946 55.6 267.944 55.6 267.941 55.6C267.939 55.6 267.936 55.6 267.934 55.6C267.932 55.6 267.929 55.6 267.927 55.6C267.924 55.6 267.922 55.6 267.92 55.6C267.917 55.6 267.915 55.6 267.912 55.6C267.91 55.6 267.907 55.6 267.905 55.6C267.903 55.6 267.9 55.6 267.898 55.6C267.895 55.6 267.893 55.6 267.891 55.6C267.888 55.6 267.886 55.6 267.883 55.6C267.881 55.6 267.878 55.6 267.876 55.6C267.874 55.6 267.871 55.6 267.869 55.6C267.866 55.6 267.864 55.6 267.862 55.6C267.859 55.6 267.857 55.6 267.854 55.6C267.852 55.6 267.85 55.6 267.847 55.6C267.845 55.6 267.842 55.6 267.84 55.6C267.838 55.6 267.835 55.6 267.833 55.6C267.83 55.6 267.828 55.6 267.825 55.6C267.823 55.6 267.821 55.6 267.818 55.6C267.816 55.6 267.813 55.6 267.811 55.6C267.809 55.6 267.806 55.6 267.804 55.6C267.801 55.6 267.799 55.6 267.797 55.6C267.794 55.6 267.792 55.6 267.789 55.6C267.787 55.6 267.785 55.6 267.782 55.6C267.78 55.6 267.777 55.6 267.775 55.6C267.773 55.6 267.77 55.6 267.768 55.6C267.765 55.6 267.763 55.6 267.761 55.6C267.758 55.6 267.756 55.6 267.753 55.6C267.751 55.6 267.749 55.6 267.746 55.6C267.744 55.6 267.741 55.6 267.739 55.6C267.737 55.6 267.734 55.6 267.732 55.6C267.729 55.6 267.727 55.6 267.725 55.6C267.722 55.6 267.72 55.6 267.718 55.6C267.715 55.6 267.713 55.6 267.71 55.6C267.708 55.6 267.706 55.6 267.703 55.6C267.701 55.6 267.698 55.6 267.696 55.6C267.694 55.6 267.691 55.6 267.689 55.6C267.686 55.6 267.684 55.6 267.682 55.6C267.679 55.6 267.677 55.6 267.674 55.6C267.672 55.6 267.67 55.6 267.667 55.6C267.665 55.6 267.663 55.6 267.66 55.6C267.658 55.6 267.655 55.6 267.653 55.6C267.651 55.6 267.648 55.6 267.646 55.6C267.643 55.6 267.641 55.6 267.639 55.6C267.636 55.6 267.634 55.6 267.632 55.6C267.629 55.6 267.627 55.6 267.624 55.6C267.622 55.6 267.62 55.6 267.617 55.6C267.615 55.6 267.612 55.6 267.61 55.6C267.608 55.6 267.605 55.6 267.603 55.6C267.601 55.6 267.598 55.6 267.596 55.6C267.593 55.6 267.591 55.6 267.589 55.6C267.586 55.6 267.584 55.6 267.582 55.6C267.579 55.6 267.577 55.6 267.574 55.6C267.572 55.6 267.57 55.6 267.567 55.6C267.565 55.6 267.563 55.6 267.56 55.6C267.558 55.6 267.555 55.6 267.553 55.6C267.551 55.6 267.548 55.6 267.546 55.6C267.544 55.6 267.541 55.6 267.539 55.6C267.536 55.6 267.534 55.6 267.532 55.6C267.529 55.6 267.527 55.6 267.525 55.6C267.522 55.6 267.52 55.6 267.517 55.6C267.515 55.6 267.513 55.6 267.51 55.6C267.508 55.6 267.506 55.6 267.503 55.6C267.501 55.6 267.498 55.6 267.496 55.6C267.494 55.6 267.491 55.6 267.489 55.6C267.487 55.6 267.484 55.6 267.482 55.6C267.48 55.6 267.477 55.6 267.475 55.6C267.472 55.6 267.47 55.6 267.468 55.6C267.465 55.6 267.463 55.6 267.461 55.6C267.458 55.6 267.456 55.6 267.454 55.6C267.451 55.6 267.449 55.6 267.446 55.6C267.444 55.6 267.442 55.6 267.439 55.6C267.437 55.6 267.435 55.6 267.432 55.6C267.43 55.6 267.428 55.6 267.425 55.6C267.423 55.6 267.42 55.6 267.418 55.6C267.416 55.6 267.413 55.6 267.411 55.6C267.409 55.6 267.406 55.6 267.404 55.6C267.402 55.6 267.399 55.6 267.397 55.6C267.395 55.6 267.392 55.6 267.39 55.6C267.387 55.6 267.385 55.6 267.383 55.6C267.38 55.6 267.378 55.6 267.376 55.6C267.373 55.6 267.371 55.6 267.369 55.6C267.366 55.6 267.364 55.6 267.362 55.6C267.359 55.6 267.357 55.6 267.354 55.6C267.352 55.6 267.35 55.6 267.347 55.6C267.345 55.6 267.343 55.6 267.34 55.6C267.338 55.6 267.336 55.6 267.333 55.6C267.331 55.6 267.329 55.6 267.326 55.6C267.324 55.6 267.322 55.6 267.319 55.6C267.317 55.6 267.315 55.6 267.312 55.6C267.31 55.6 267.308 55.6 267.305 55.6C267.303 55.6 267.3 55.6 267.298 55.6C267.296 55.6 267.293 55.6 267.291 55.6C267.289 55.6 267.286 55.6 267.284 55.6C267.282 55.6 267.279 55.6 267.277 55.6C267.275 55.6 267.272 55.6 267.27 55.6C267.268 55.6 267.265 55.6 267.263 55.6C267.261 55.6 267.258 55.6 267.256 55.6C267.254 55.6 267.251 55.6 267.249 55.6C267.247 55.6 267.244 55.6 267.242 55.6C267.24 55.6 267.237 55.6 267.235 55.6C267.233 55.6 267.23 55.6 267.228 55.6C267.226 55.6 267.223 55.6 267.221 55.6C267.219 55.6 267.216 55.6 267.214 55.6C267.212 55.6 267.209 55.6 267.207 55.6C267.205 55.6 267.202 55.6 267.2 55.6C267.198 55.6 267.195 55.6 267.193 55.6C267.191 55.6 267.188 55.6 267.186 55.6C267.184 55.6 267.181 55.6 267.179 55.6C267.177 55.6 267.174 55.6 267.172 55.6C267.17 55.6 267.167 55.6 267.165 55.6C267.163 55.6 267.16 55.6 267.158 55.6C267.156 55.6 267.153 55.6 267.151 55.6C267.149 55.6 267.146 55.6 267.144 55.6C267.142 55.6 267.139 55.6 267.137 55.6C267.135 55.6 267.132 55.6 267.13 55.6C267.128 55.6 267.125 55.6 267.123 55.6C267.121 55.6 267.118 55.6 267.116 55.6C267.114 55.6 267.111 55.6 267.109 55.6C267.107 55.6 267.104 55.6 267.102 55.6C267.1 55.6 267.097 55.6 267.095 55.6C267.093 55.6 267.09 55.6 267.088 55.6C267.086 55.6 267.084 55.6 267.081 55.6C267.079 55.6 267.077 55.6 267.074 55.6C267.072 55.6 267.07 55.6 267.067 55.6C267.065 55.6 267.063 55.6 267.06 55.6C267.058 55.6 267.056 55.6 267.053 55.6C267.051 55.6 267.049 55.6 267.046 55.6C267.044 55.6 267.042 55.6 267.039 55.6C267.037 55.6 267.035 55.6 267.033 55.6C267.03 55.6 267.028 55.6 267.026 55.6C267.023 55.6 267.021 55.6 267.019 55.6C267.016 55.6 267.014 55.6 267.012 55.6C267.009 55.6 267.007 55.6 267.005 55.6C267.002 55.6 267 55.6 266.998 55.6C266.996 55.6 266.993 55.6 266.991 55.6C266.989 55.6 266.986 55.6 266.984 55.6C266.982 55.6 266.979 55.6 266.977 55.6C266.975 55.6 266.972 55.6 266.97 55.6C266.968 55.6 266.966 55.6 266.963 55.6C266.961 55.6 266.959 55.6 266.956 55.6C266.954 55.6 266.952 55.6 266.949 55.6C266.947 55.6 266.945 55.6 266.942 55.6C266.94 55.6 266.938 55.6 266.936 55.6C266.933 55.6 266.931 55.6 266.929 55.6C266.926 55.6 266.924 55.6 266.922 55.6C266.919 55.6 266.917 55.6 266.915 55.6C266.913 55.6 266.91 55.6 266.908 55.6C266.906 55.6 266.903 55.6 266.901 55.6C266.899 55.6 266.896 55.6 266.894 55.6C266.892 55.6 266.89 55.6 266.887 55.6C266.885 55.6 266.883 55.6 266.88 55.6C266.878 55.6 266.876 55.6 266.873 55.6C266.871 55.6 266.869 55.6 266.867 55.6C266.864 55.6 266.862 55.6 266.86 55.6C266.857 55.6 266.855 55.6 266.853 55.6C266.851 55.6 266.848 55.6 266.846 55.6C266.844 55.6 266.841 55.6 266.839 55.6C266.837 55.6 266.834 55.6 266.832 55.6C266.83 55.6 266.828 55.6 266.825 55.6C266.823 55.6 266.821 55.6 266.818 55.6C266.816 55.6 266.814 55.6 266.812 55.6C266.809 55.6 266.807 55.6 266.805 55.6C266.802 55.6 266.8 55.6 266.798 55.6C266.796 55.6 266.793 55.6 266.791 55.6C266.789 55.6 266.786 55.6 266.784 55.6C266.782 55.6 266.78 55.6 266.777 55.6C266.775 55.6 266.773 55.6 266.77 55.6C266.768 55.6 266.766 55.6 266.764 55.6C266.761 55.6 266.759 55.6 266.757 55.6C266.754 55.6 266.752 55.6 266.75 55.6C266.748 55.6 266.745 55.6 266.743 55.6C266.741 55.6 266.738 55.6 266.736 55.6C266.734 55.6 266.732 55.6 266.729 55.6C266.727 55.6 266.725 55.6 266.723 55.6C266.72 55.6 266.718 55.6 266.716 55.6C266.713 55.6 266.711 55.6 266.709 55.6C266.707 55.6 266.704 55.6 266.702 55.6C266.7 55.6 266.698 55.6 266.695 55.6C266.693 55.6 266.691 55.6 266.688 55.6C266.686 55.6 266.684 55.6 266.682 55.6C266.679 55.6 266.677 55.6 266.675 55.6C266.672 55.6 266.67 55.6 266.668 55.6C266.666 55.6 266.663 55.6 266.661 55.6C266.659 55.6 266.657 55.6 266.654 55.6C266.652 55.6 266.65 55.6 266.648 55.6C266.645 55.6 266.643 55.6 266.641 55.6C266.638 55.6 266.636 55.6 266.634 55.6C266.632 55.6 266.629 55.6 266.627 55.6C266.625 55.6 266.623 55.6 266.62 55.6C266.618 55.6 266.616 55.6 266.614 55.6C266.611 55.6 266.609 55.6 266.607 55.6C266.604 55.6 266.602 55.6 266.6 55.6C266.598 55.6 266.595 55.6 266.593 55.6C266.591 55.6 266.589 55.6 266.586 55.6C266.584 55.6 266.582 55.6 266.58 55.6C266.577 55.6 266.575 55.6 266.573 55.6C266.571 55.6 266.568 55.6 266.566 55.6C266.564 55.6 266.561 55.6 266.559 55.6C266.557 55.6 266.555 55.6 266.552 55.6C266.55 55.6 266.548 55.6 266.546 55.6C266.543 55.6 266.541 55.6 266.539 55.6C266.537 55.6 266.534 55.6 266.532 55.6C266.53 55.6 266.528 55.6 266.525 55.6C266.523 55.6 266.521 55.6 266.519 55.6C266.516 55.6 266.514 55.6 266.512 55.6C266.51 55.6 266.507 55.6 266.505 55.6C266.503 55.6 266.501 55.6 266.498 55.6C266.496 55.6 266.494 55.6 266.492 55.6C266.489 55.6 266.487 55.6 266.485 55.6C266.483 55.6 266.48 55.6 266.478 55.6C266.476 55.6 266.474 55.6 266.471 55.6C266.469 55.6 266.467 55.6 266.465 55.6C266.462 55.6 266.46 55.6 266.458 55.6C266.456 55.6 266.453 55.6 266.451 55.6C266.449 55.6 266.447 55.6 266.444 55.6C266.442 55.6 266.44 55.6 266.438 55.6C266.435 55.6 266.433 55.6 266.431 55.6C266.429 55.6 266.426 55.6 266.424 55.6C266.422 55.6 266.42 55.6 266.418 55.6C266.415 55.6 266.413 55.6 266.411 55.6C266.409 55.6 266.406 55.6 266.404 55.6C266.402 55.6 266.4 55.6 266.397 55.6C266.395 55.6 266.393 55.6 266.391 55.6C266.388 55.6 266.386 55.6 266.384 55.6C266.382 55.6 266.379 55.6 266.377 55.6C266.375 55.6 266.373 55.6 266.37 55.6C266.368 55.6 266.366 55.6 266.364 55.6C266.362 55.6 266.359 55.6 266.357 55.6C266.355 55.6 266.353 55.6 266.35 55.6C266.348 55.6 266.346 55.6 266.344 55.6C266.341 55.6 266.339 55.6 266.337 55.6C266.335 55.6 266.333 55.6 266.33 55.6C266.328 55.6 266.326 55.6 266.324 55.6C266.321 55.6 266.319 55.6 266.317 55.6C266.315 55.6 266.312 55.6 266.31 55.6C266.308 55.6 266.306 55.6 266.304 55.6C266.301 55.6 266.299 55.6 266.297 55.6C266.295 55.6 266.292 55.6 266.29 55.6C266.288 55.6 266.286 55.6 266.284 55.6C266.281 55.6 266.279 55.6 266.277 55.6C266.275 55.6 266.272 55.6 266.27 55.6C266.268 55.6 266.266 55.6 266.264 55.6C266.261 55.6 266.259 55.6 266.257 55.6C266.255 55.6 266.252 55.6 266.25 55.6C266.248 55.6 266.246 55.6 266.244 55.6C266.241 55.6 266.239 55.6 266.237 55.6C266.235 55.6 266.232 55.6 266.23 55.6C266.228 55.6 266.226 55.6 266.224 55.6C266.221 55.6 266.219 55.6 266.217 55.6C266.215 55.6 266.212 55.6 266.21 55.6C266.208 55.6 266.206 55.6 266.204 55.6C266.201 55.6 266.199 55.6 266.197 55.6C266.195 55.6 266.193 55.6 266.19 55.6C266.188 55.6 266.186 55.6 266.184 55.6C266.181 55.6 266.179 55.6 266.177 55.6C266.175 55.6 266.173 55.6 266.17 55.6C266.168 55.6 266.166 55.6 266.164 55.6C266.162 55.6 266.159 55.6 266.157 55.6C266.155 55.6 266.153 55.6 266.151 55.6C266.148 55.6 266.146 55.6 266.144 55.6C266.142 55.6 266.139 55.6 266.137 55.6C266.135 55.6 266.133 55.6 266.131 55.6C266.128 55.6 266.126 55.6 266.124 55.6C266.122 55.6 266.12 55.6 266.117 55.6C266.115 55.6 266.113 55.6 266.111 55.6C266.109 55.6 266.106 55.6 266.104 55.6C266.102 55.6 266.1 55.6 266.098 55.6C266.095 55.6 266.093 55.6 266.091 55.6C266.089 55.6 266.087 55.6 266.084 55.6C266.082 55.6 266.08 55.6 266.078 55.6C266.076 55.6 266.073 55.6 266.071 55.6C266.069 55.6 266.067 55.6 266.065 55.6C266.062 55.6 266.06 55.6 266.058 55.6C266.056 55.6 266.054 55.6 266.051 55.6C266.049 55.6 266.047 55.6 266.045 55.6C266.043 55.6 266.04 55.6 266.038 55.6C266.036 55.6 266.034 55.6 266.032 55.6C266.029 55.6 266.027 55.6 266.025 55.6C266.023 55.6 266.021 55.6 266.018 55.6C266.016 55.6 266.014 55.6 266.012 55.6C266.01 55.6 266.008 55.6 266.005 55.6C266.003 55.6 266.001 55.6 265.999 55.6C265.997 55.6 265.994 55.6 265.992 55.6C265.99 55.6 265.988 55.6 265.986 55.6C265.983 55.6 265.981 55.6 265.979 55.6V57.6ZM269.699 57.5992C271.031 57.5459 272.417 57.4926 273.856 57.4393L273.782 55.4407C272.341 55.4941 270.953 55.5474 269.619 55.6008L269.699 57.5992ZM273.856 57.4393C275.296 57.386 276.736 57.3326 278.176 57.2793L278.102 55.2807C276.662 55.334 275.222 55.3874 273.782 55.4407L273.856 57.4393ZM278.175 57.2794C279.684 57.2255 281.589 57.118 283.889 56.9576L283.749 54.9624C281.462 55.122 279.581 55.2279 278.103 55.2806L278.175 57.2794ZM283.887 56.9577C286.231 56.7979 289.135 56.6114 292.6 56.3981L292.478 54.4019C289.01 54.6153 286.101 54.8021 283.751 54.9623L283.887 56.9577ZM291.539 55.4V66.2H293.539V55.4H291.539ZM347.348 67V68H348.348V67H347.348ZM302.948 67H301.948V68H302.948V67ZM302.948 11V10H301.948V11H302.948ZM347.348 11H348.348V10H347.348V11ZM347.348 22.2V23.2H348.348V22.2H347.348ZM317.348 22.2V21.2H316.348V22.2H317.348ZM317.348 33H316.348V34H317.348V33ZM340.948 33H341.948V32H340.948V33ZM340.948 44.2V45.2H341.948V44.2H340.948ZM317.348 44.2V43.2H316.348V44.2H317.348ZM317.348 55.8H316.348V56.8H317.348V55.8ZM347.348 55.8H348.348V54.8H347.348V55.8ZM347.348 66H302.948V68H347.348V66ZM303.948 67V11H301.948V67H303.948ZM302.948 12H347.348V10H302.948V12ZM346.348 11V22.2H348.348V11H346.348ZM347.348 21.2H317.348V23.2H347.348V21.2ZM316.348 22.2V33H318.348V22.2H316.348ZM317.348 34H340.948V32H317.348V34ZM339.948 33V44.2H341.948V33H339.948ZM340.948 43.2H317.348V45.2H340.948V43.2ZM316.348 44.2V55.8H318.348V44.2H316.348ZM317.348 56.8H347.348V54.8H317.348V56.8ZM346.348 55.8V67H348.348V55.8H346.348Z" fill="#BB86FC"/>
</g>
<defs>
<filter id="filter0_d" x="0.270264" y="0" width="358.078" height="78.8" filterUnits="userSpaceOnUse" color-interpolation-filters="sRGB">
<feFlood flood-opacity="0" result="BackgroundImageFix"/>
<feColorMatrix in="SourceAlpha" type="matrix" values="0 0 0 0 0 0 0 0 0 0 0 0 0 0 0 0 0 0 127 0"/>
<feOffset/>
<feGaussianBlur stdDeviation="5"/>
<feColorMatrix type="matrix" values="0 0 0 0 1 0 0 0 0 1 0 0 0 0 1 0 0 0 1 0"/>
<feBlend mode="normal" in2="BackgroundImageFix" result="effect1_dropShadow"/>
<feBlend mode="normal" in="SourceGraphic" in2="effect1_dropShadow" result="shape"/>
</filter>
</defs>
</svg>