<svg width="609" height="86" viewBox="0 0 609 86" fill="none" xmlns="http://www.w3.org/2000/svg">
<g filter="url(#filter0_d)">
<path d="M12.7336 60.95C29.1736 61.85 40.3036 62.3 46.1236 62.3C47.5036 62.3 48.5836 61.91 49.3636 61.13C50.2036 60.29 50.6236 59.18 50.6236 57.8V49.7H29.9236C23.6236 49.7 19.0336 48.29 16.1536 45.47C13.3336 42.59 11.9236 38 11.9236 31.7V29C11.9236 22.7 13.3336 18.14 16.1536 15.32C19.0336 12.44 23.6236 11 29.9236 11H61.5136V23.6H33.5236C29.9236 23.6 28.1236 25.4 28.1236 29V30.8C28.1236 34.4 29.9236 36.2 33.5236 36.2H49.7236C55.6036 36.2 59.9236 37.58 62.6836 40.34C65.4436 43.1 66.8236 47.42 66.8236 53.3V57.8C66.8236 63.68 65.4436 68 62.6836 70.76C59.9236 73.52 55.6036 74.9 49.7236 74.9C46.6636 74.9 43.4236 74.84 40.0036 74.72L31.7236 74.36C25.6036 74.06 19.2736 73.64 12.7336 73.1V60.95ZM105.534 74H89.3342V23.6H70.4342V11H124.434V23.6H105.534V74ZM140.167 74H122.617L146.467 11H164.467L188.317 74H170.767L166.717 62.75H144.217L140.167 74ZM148.267 51.05H162.667L155.467 29.9L148.267 51.05ZM197.313 11H235.113C241.413 11 245.973 12.44 248.793 15.32C251.673 18.14 253.113 22.7 253.113 29V37.1C253.113 42.08 252.273 45.95 250.593 48.71C248.973 51.47 246.363 53.3 242.763 54.2L254.013 74H236.463L226.113 55.1H213.513V74H197.313V11ZM236.913 29C236.913 25.4 235.113 23.6 231.513 23.6H213.513V42.5H231.513C235.113 42.5 236.913 40.7 236.913 37.1V29ZM352.971 74H335.871L314.271 36.2V74H298.071V11H315.171L336.771 48.8V11H352.971V74ZM398.013 74H365.613V61.4H373.713V23.6H365.613V11H398.013V23.6H389.913V61.4H398.013V74ZM464.606 72.65C450.566 74.15 437.666 74.9 425.906 74.9C420.026 74.9 415.706 73.52 412.946 70.76C410.186 68 408.806 63.68 408.806 57.8V29C408.806 22.7 410.216 18.14 413.036 15.32C415.916 12.44 420.506 11 426.806 11H459.206V23.6H430.406C426.806 23.6 425.006 25.4 425.006 29V57.8C425.006 59.18 425.396 60.29 426.176 61.13C427.016 61.91 428.126 62.3 429.506 62.3C436.406 62.3 442.706 62.15 448.406 61.85V48.8H436.706V38H464.606V72.65ZM533.024 74H516.824V48.35H494.324V74H478.124V11H494.324V35.75H516.824V11H533.024V74ZM578.966 74H562.766V23.6H543.866V11H597.866V23.6H578.966V74Z" fill="white"/>
<path d="M12.7336 60.95L12.7883 59.9515L11.7336 59.8938V60.95H12.7336ZM49.3636 61.13L48.6565 60.4229L48.6565 60.4229L49.3636 61.13ZM50.6236 49.7H51.6236V48.7H50.6236V49.7ZM16.1536 45.47L15.4391 46.1696L15.4465 46.1771L15.454 46.1845L16.1536 45.47ZM16.1536 15.32L16.8607 16.0271L16.8607 16.0271L16.1536 15.32ZM61.5136 11H62.5136V10H61.5136V11ZM61.5136 23.6V24.6H62.5136V23.6H61.5136ZM62.6836 70.76L61.9765 70.0529L61.9765 70.0529L62.6836 70.76ZM40.0036 74.72L39.9602 75.7191L39.9686 75.7194L40.0036 74.72ZM31.7236 74.36L31.6747 75.3588L31.6802 75.3591L31.7236 74.36ZM12.7336 73.1H11.7336V74.0208L12.6513 74.0966L12.7336 73.1ZM12.679 61.9485C29.1156 62.8483 40.2721 63.3 46.1236 63.3V61.3C40.3351 61.3 29.2316 60.8517 12.7883 59.9515L12.679 61.9485ZM46.1236 63.3C47.6985 63.3 49.0587 62.8491 50.0707 61.8371L48.6565 60.4229C48.1085 60.9709 47.3087 61.3 46.1236 61.3V63.3ZM50.0707 61.8371C51.1287 60.7792 51.6236 59.3989 51.6236 57.8H49.6236C49.6236 58.9611 49.2786 59.8008 48.6565 60.4229L50.0707 61.8371ZM51.6236 57.8V49.7H49.6236V57.8H51.6236ZM50.6236 48.7H29.9236V50.7H50.6236V48.7ZM29.9236 48.7C23.7425 48.7 19.4646 47.3124 16.8533 44.7555L15.454 46.1845C18.6027 49.2676 23.5047 50.7 29.9236 50.7V48.7ZM16.8681 44.7704C14.3112 42.1591 12.9236 37.8811 12.9236 31.7H10.9236C10.9236 38.1189 12.356 43.0209 15.4391 46.1696L16.8681 44.7704ZM12.9236 31.7V29H10.9236V31.7H12.9236ZM12.9236 29C12.9236 22.8165 14.3123 18.5756 16.8607 16.0271L15.4465 14.6129C12.355 17.7044 10.9236 22.5835 10.9236 29H12.9236ZM16.8607 16.0271C19.4725 13.4154 23.7473 12 29.9236 12V10C23.5 10 18.5948 11.4646 15.4465 14.6129L16.8607 16.0271ZM29.9236 12H61.5136V10H29.9236V12ZM60.5136 11V23.6H62.5136V11H60.5136ZM61.5136 22.6H33.5236V24.6H61.5136V22.6ZM33.5236 22.6C31.5695 22.6 29.9202 23.0892 28.7665 24.2429C27.6128 25.3966 27.1236 27.0459 27.1236 29H29.1236C29.1236 27.3541 29.5344 26.3034 30.1807 25.6571C30.8271 25.0108 31.8778 24.6 33.5236 24.6V22.6ZM27.1236 29V30.8H29.1236V29H27.1236ZM27.1236 30.8C27.1236 32.7541 27.6128 34.4034 28.7665 35.5571C29.9202 36.7108 31.5695 37.2 33.5236 37.2V35.2C31.8778 35.2 30.8271 34.7892 30.1807 34.1429C29.5344 33.4966 29.1236 32.4459 29.1236 30.8H27.1236ZM33.5236 37.2H49.7236V35.2H33.5236V37.2ZM49.7236 37.2C55.4709 37.2 59.4806 38.5512 61.9765 41.0471L63.3907 39.6329C60.3667 36.6088 55.7363 35.2 49.7236 35.2V37.2ZM61.9765 41.0471C64.4725 43.543 65.8236 47.5527 65.8236 53.3H67.8236C67.8236 47.2873 66.4148 42.657 63.3907 39.6329L61.9765 41.0471ZM65.8236 53.3V57.8H67.8236V53.3H65.8236ZM65.8236 57.8C65.8236 63.5473 64.4725 67.557 61.9765 70.0529L63.3907 71.4671C66.4148 68.443 67.8236 63.8127 67.8236 57.8H65.8236ZM61.9765 70.0529C59.4806 72.5488 55.4709 73.9 49.7236 73.9V75.9C55.7363 75.9 60.3667 74.4912 63.3907 71.4671L61.9765 70.0529ZM49.7236 73.9C46.6766 73.9 43.4484 73.8403 40.0387 73.7206L39.9686 75.7194C43.3989 75.8397 46.6507 75.9 49.7236 75.9V73.9ZM40.0471 73.7209L31.7671 73.3609L31.6802 75.3591L39.9602 75.7191L40.0471 73.7209ZM31.7726 73.3612C25.6645 73.0618 19.3456 72.6425 12.8159 72.1034L12.6513 74.0966C19.2017 74.6375 25.5428 75.0582 31.6747 75.3588L31.7726 73.3612ZM13.7336 73.1V60.95H11.7336V73.1H13.7336ZM105.534 74V75H106.534V74H105.534ZM89.3342 74H88.3342V75H89.3342V74ZM89.3342 23.6H90.3342V22.6H89.3342V23.6ZM70.4342 23.6H69.4342V24.6H70.4342V23.6ZM70.4342 11V10H69.4342V11H70.4342ZM124.434 11H125.434V10H124.434V11ZM124.434 23.6V24.6H125.434V23.6H124.434ZM105.534 23.6V22.6H104.534V23.6H105.534ZM105.534 73H89.3342V75H105.534V73ZM90.3342 74V23.6H88.3342V74H90.3342ZM89.3342 22.6H70.4342V24.6H89.3342V22.6ZM71.4342 23.6V11H69.4342V23.6H71.4342ZM70.4342 12H124.434V10H70.4342V12ZM123.434 11V23.6H125.434V11H123.434ZM124.434 22.6H105.534V24.6H124.434V22.6ZM104.534 23.6V74H106.534V23.6H104.534ZM140.167 74V75H140.869L141.107 74.3387L140.167 74ZM122.617 74L121.681 73.6459L121.169 75H122.617V74ZM146.467 11V10H145.776L145.531 10.6459L146.467 11ZM164.467 11L165.402 10.6459L165.157 10H164.467V11ZM188.317 74V75H189.764L189.252 73.6459L188.317 74ZM170.767 74L169.826 74.3387L170.064 75H170.767V74ZM166.717 62.75L167.657 62.4113L167.419 61.75H166.717V62.75ZM144.217 62.75V61.75H143.514L143.276 62.4113L144.217 62.75ZM148.267 51.05L147.32 50.7277L146.87 52.05H148.267V51.05ZM162.667 51.05V52.05H164.063L163.613 50.7277L162.667 51.05ZM155.467 29.9L156.413 29.5777L155.467 26.797L154.52 29.5777L155.467 29.9ZM140.167 73H122.617V75H140.167V73ZM123.552 74.3541L147.402 11.354L145.531 10.6459L121.681 73.6459L123.552 74.3541ZM146.467 12H164.467V10H146.467V12ZM163.531 11.354L187.381 74.3541L189.252 73.6459L165.402 10.6459L163.531 11.354ZM188.317 73H170.767V75H188.317V73ZM171.707 73.6613L167.657 62.4113L165.776 63.0887L169.826 74.3387L171.707 73.6613ZM166.717 61.75H144.217V63.75H166.717V61.75ZM143.276 62.4113L139.226 73.6613L141.107 74.3387L145.157 63.0887L143.276 62.4113ZM148.267 52.05H162.667V50.05H148.267V52.05ZM163.613 50.7277L156.413 29.5777L154.52 30.2223L161.72 51.3723L163.613 50.7277ZM154.52 29.5777L147.32 50.7277L149.213 51.3723L156.413 30.2223L154.52 29.5777ZM197.313 11V10H196.313V11H197.313ZM248.793 15.32L248.079 16.0196L248.086 16.0271L248.093 16.0345L248.793 15.32ZM250.593 48.71L249.739 48.1901L249.735 48.1969L249.731 48.2038L250.593 48.71ZM242.763 54.2L242.521 53.2299L241.243 53.5492L241.894 54.694L242.763 54.2ZM254.013 74V75H255.731L254.883 73.506L254.013 74ZM236.463 74L235.586 74.4803L235.871 75H236.463V74ZM226.113 55.1L226.99 54.6197L226.706 54.1H226.113V55.1ZM213.513 55.1V54.1H212.513V55.1H213.513ZM213.513 74V75H214.513V74H213.513ZM197.313 74H196.313V75H197.313V74ZM213.513 23.6V22.6H212.513V23.6H213.513ZM213.513 42.5H212.513V43.5H213.513V42.5ZM197.313 12H235.113V10H197.313V12ZM235.113 12C241.292 12 245.53 13.4163 248.079 16.0196L249.508 14.6204C246.417 11.4637 241.534 10 235.113 10V12ZM248.093 16.0345C250.697 18.5836 252.113 22.8213 252.113 29H254.113C254.113 22.5787 252.649 17.6964 249.493 14.6055L248.093 16.0345ZM252.113 29V37.1H254.113V29H252.113ZM252.113 37.1C252.113 41.9879 251.285 45.6497 249.739 48.1901L251.447 49.2299C253.261 46.2503 254.113 42.1721 254.113 37.1H252.113ZM249.731 48.2038C248.268 50.695 245.905 52.3837 242.521 53.2299L243.006 55.1701C246.821 54.2163 249.678 52.245 251.456 49.2162L249.731 48.2038ZM241.894 54.694L253.144 74.494L254.883 73.506L243.633 53.706L241.894 54.694ZM254.013 73H236.463V75H254.013V73ZM237.34 73.5197L226.99 54.6197L225.236 55.5803L235.586 74.4803L237.34 73.5197ZM226.113 54.1H213.513V56.1H226.113V54.1ZM212.513 55.1V74H214.513V55.1H212.513ZM213.513 73H197.313V75H213.513V73ZM198.313 74V11H196.313V74H198.313ZM237.913 29C237.913 27.0459 237.424 25.3966 236.27 24.2429C235.117 23.0892 233.467 22.6 231.513 22.6V24.6C233.159 24.6 234.21 25.0108 234.856 25.6571C235.502 26.3034 235.913 27.3541 235.913 29H237.913ZM231.513 22.6H213.513V24.6H231.513V22.6ZM212.513 23.6V42.5H214.513V23.6H212.513ZM213.513 43.5H231.513V41.5H213.513V43.5ZM231.513 43.5C233.467 43.5 235.117 43.0108 236.27 41.8571C237.424 40.7034 237.913 39.0541 237.913 37.1H235.913C235.913 38.7459 235.502 39.7966 234.856 40.4429C234.21 41.0892 233.159 41.5 231.513 41.5V43.5ZM237.913 37.1V29H235.913V37.1H237.913ZM352.971 74V75H353.971V74H352.971ZM335.871 74L335.003 74.4961L335.291 75H335.871V74ZM314.271 36.2L315.139 35.7039L313.271 32.4344V36.2H314.271ZM314.271 74V75H315.271V74H314.271ZM298.071 74H297.071V75H298.071V74ZM298.071 11V10H297.071V11H298.071ZM315.171 11L316.039 10.5039L315.751 10H315.171V11ZM336.771 48.8L335.903 49.2961L337.771 52.5656V48.8H336.771ZM336.771 11V10H335.771V11H336.771ZM352.971 11H353.971V10H352.971V11ZM352.971 73H335.871V75H352.971V73ZM336.739 73.5039L315.139 35.7039L313.403 36.6961L335.003 74.4961L336.739 73.5039ZM313.271 36.2V74H315.271V36.2H313.271ZM314.271 73H298.071V75H314.271V73ZM299.071 74V11H297.071V74H299.071ZM298.071 12H315.171V10H298.071V12ZM314.303 11.4961L335.903 49.2961L337.639 48.3039L316.039 10.5039L314.303 11.4961ZM337.771 48.8V11H335.771V48.8H337.771ZM336.771 12H352.971V10H336.771V12ZM351.971 11V74H353.971V11H351.971ZM398.013 74V75H399.013V74H398.013ZM365.613 74H364.613V75H365.613V74ZM365.613 61.4V60.4H364.613V61.4H365.613ZM373.713 61.4V62.4H374.713V61.4H373.713ZM373.713 23.6H374.713V22.6H373.713V23.6ZM365.613 23.6H364.613V24.6H365.613V23.6ZM365.613 11V10H364.613V11H365.613ZM398.013 11H399.013V10H398.013V11ZM398.013 23.6V24.6H399.013V23.6H398.013ZM389.913 23.6V22.6H388.913V23.6H389.913ZM389.913 61.4H388.913V62.4H389.913V61.4ZM398.013 61.4H399.013V60.4H398.013V61.4ZM398.013 73H365.613V75H398.013V73ZM366.613 74V61.4H364.613V74H366.613ZM365.613 62.4H373.713V60.4H365.613V62.4ZM374.713 61.4V23.6H372.713V61.4H374.713ZM373.713 22.6H365.613V24.6H373.713V22.6ZM366.613 23.6V11H364.613V23.6H366.613ZM365.613 12H398.013V10H365.613V12ZM397.013 11V23.6H399.013V11H397.013ZM398.013 22.6H389.913V24.6H398.013V22.6ZM388.913 23.6V61.4H390.913V23.6H388.913ZM389.913 62.4H398.013V60.4H389.913V62.4ZM397.013 61.4V74H399.013V61.4H397.013ZM464.606 72.65L464.712 73.6443L465.606 73.5489V72.65H464.606ZM412.946 70.76L413.653 70.0529L413.653 70.0529L412.946 70.76ZM413.036 15.32L413.743 16.0271L413.743 16.0271L413.036 15.32ZM459.206 11H460.206V10H459.206V11ZM459.206 23.6V24.6H460.206V23.6H459.206ZM426.176 61.13L425.443 61.8105L425.468 61.8376L425.496 61.8628L426.176 61.13ZM448.406 61.85L448.459 62.8486L449.406 62.7988V61.85H448.406ZM448.406 48.8H449.406V47.8H448.406V48.8ZM436.706 48.8H435.706V49.8H436.706V48.8ZM436.706 38V37H435.706V38H436.706ZM464.606 38H465.606V37H464.606V38ZM464.5 71.6557C450.488 73.1526 437.624 73.9 425.906 73.9V75.9C437.708 75.9 450.644 75.1474 464.712 73.6443L464.5 71.6557ZM425.906 73.9C420.159 73.9 416.149 72.5488 413.653 70.0529L412.239 71.4671C415.263 74.4912 419.893 75.9 425.906 75.9V73.9ZM413.653 70.0529C411.157 67.557 409.806 63.5473 409.806 57.8H407.806C407.806 63.8127 409.215 68.443 412.239 71.4671L413.653 70.0529ZM409.806 57.8V29H407.806V57.8H409.806ZM409.806 29C409.806 22.8165 411.195 18.5756 413.743 16.0271L412.329 14.6129C409.237 17.7044 407.806 22.5835 407.806 29H409.806ZM413.743 16.0271C416.355 13.4154 420.63 12 426.806 12V10C420.382 10 415.477 11.4646 412.329 14.6129L413.743 16.0271ZM426.806 12H459.206V10H426.806V12ZM458.206 11V23.6H460.206V11H458.206ZM459.206 22.6H430.406V24.6H459.206V22.6ZM430.406 22.6C428.452 22.6 426.803 23.0892 425.649 24.2429C424.495 25.3966 424.006 27.0459 424.006 29H426.006C426.006 27.3541 426.417 26.3034 427.063 25.6571C427.709 25.0108 428.76 24.6 430.406 24.6V22.6ZM424.006 29V57.8H426.006V29H424.006ZM424.006 57.8C424.006 59.378 424.458 60.7491 425.443 61.8105L426.909 60.4495C426.334 59.8309 426.006 58.982 426.006 57.8H424.006ZM425.496 61.8628C426.557 62.8483 427.928 63.3 429.506 63.3V61.3C428.324 61.3 427.475 60.9717 426.857 60.3972L425.496 61.8628ZM429.506 63.3C436.42 63.3 442.738 63.1497 448.459 62.8486L448.353 60.8514C442.674 61.1503 436.392 61.3 429.506 61.3V63.3ZM449.406 61.85V48.8H447.406V61.85H449.406ZM448.406 47.8H436.706V49.8H448.406V47.8ZM437.706 48.8V38H435.706V48.8H437.706ZM436.706 39H464.606V37H436.706V39ZM463.606 38V72.65H465.606V38H463.606ZM533.024 74V75H534.024V74H533.024ZM516.824 74H515.824V75H516.824V74ZM516.824 48.35H517.824V47.35H516.824V48.35ZM494.324 48.35V47.35H493.324V48.35H494.324ZM494.324 74V75H495.324V74H494.324ZM478.124 74H477.124V75H478.124V74ZM478.124 11V10H477.124V11H478.124ZM494.324 11H495.324V10H494.324V11ZM494.324 35.75H493.324V36.75H494.324V35.75ZM516.824 35.75V36.75H517.824V35.75H516.824ZM516.824 11V10H515.824V11H516.824ZM533.024 11H534.024V10H533.024V11ZM533.024 73H516.824V75H533.024V73ZM517.824 74V48.35H515.824V74H517.824ZM516.824 47.35H494.324V49.35H516.824V47.35ZM493.324 48.35V74H495.324V48.35H493.324ZM494.324 73H478.124V75H494.324V73ZM479.124 74V11H477.124V74H479.124ZM478.124 12H494.324V10H478.124V12ZM493.324 11V35.75H495.324V11H493.324ZM494.324 36.75H516.824V34.75H494.324V36.75ZM517.824 35.75V11H515.824V35.75H517.824ZM516.824 12H533.024V10H516.824V12ZM532.024 11V74H534.024V11H532.024ZM578.966 74V75H579.966V74H578.966ZM562.766 74H561.766V75H562.766V74ZM562.766 23.6H563.766V22.6H562.766V23.6ZM543.866 23.6H542.866V24.6H543.866V23.6ZM543.866 11V10H542.866V11H543.866ZM597.866 11H598.866V10H597.866V11ZM597.866 23.6V24.6H598.866V23.6H597.866ZM578.966 23.6V22.6H577.966V23.6H578.966ZM578.966 73H562.766V75H578.966V73ZM563.766 74V23.6H561.766V74H563.766ZM562.766 22.6H543.866V24.6H562.766V22.6ZM544.866 23.6V11H542.866V23.6H544.866ZM543.866 12H597.866V10H543.866V12ZM596.866 11V23.6H598.866V11H596.866ZM597.866 22.6H578.966V24.6H597.866V22.6ZM577.966 23.6V74H579.966V23.6H577.966Z" fill="#BB86FC"/>
</g>
<defs>
<filter id="filter0_d" x="0.923584" y="0" width="607.942" height="85.9" filterUnits="userSpaceOnUse" color-interpolation-filters="sRGB">
<feFlood flood-opacity="0" result="BackgroundImageFix"/>
<feColorMatrix in="SourceAlpha" type="matrix" values="0 0 0 0 0 0 0 0 0 0 0 0 0 0 0 0 0 0 127 0"/>
<feOffset/>
<feGaussianBlur stdDeviation="5"/>
<feColorMatrix type="matrix" values="0 0 0 0 1 0 0 0 0 1 0 0 0 0 1 0 0 0 1 0"/>
<feBlend mode="normal" in2="BackgroundImageFix" result="effect1_dropShadow"/>
<feBlend mode="normal" in="SourceGraphic" in2="effect1_dropShadow" result="shape"/>
</filter>
</defs>
</svg>