<?xml version="1.0" encoding="UTF-8" standalone="no"?>
<svg width="121" xmlns="http://www.w3.org/2000/svg" fill="none" viewBox="0 0 121 142" height="142">
 <g filter="url(#filter0_d)">
  <path d="m98.111 52.8c0 7.933-3.36 14.793-10.08 20.58-2.053 1.773-4.293 3.547-6.72 5.32l-30.1 21.7h46.9v19.6h-75.6v-26.6l50.4-36.4v-7c0-5.6-2.8-8.4-8.4-8.4h-39.2v-19.6h44.8c9.8 0 16.893 2.24 21.28 6.72 4.48 4.387 6.72 11.48 6.72 21.28v2.8z" fill="#000"/>
  <path d="m88.031 73.38l-1.305-1.516-0.002 0.002 1.307 1.514zm-6.72 5.32l1.17 1.622 0.01-0.007-1.18-1.615zm-30.1 21.7l-1.17-1.622-5.024 3.622h6.194v-2zm46.9 0h1.999v-2h-1.999v2zm0 19.6v2h1.999v-2h-1.999zm-75.6 0h-2v2h2v-2zm0-26.6l-1.171-1.621-0.829 0.598v1.023h2zm50.4-36.4l1.171 1.621 0.829-0.598v-1.023h-2zm-47.6-15.4h-2v2h2v-2zm0-19.6v-2h-2v2h2zm66.08 6.72l-1.429 1.399 0.015 0.015 0.015 0.015 1.399-1.429zm4.72 24.08c0 7.278-3.048 13.608-9.385 19.064l2.61 3.032c7.103-6.117 10.774-13.508 10.774-22.096h-3.999zm-9.387 19.066c-2.008 1.735-4.206 3.474-6.593 5.219l2.36 3.23c2.466-1.802 4.749-3.609 6.847-5.421l-2.614-3.028zm-6.583 5.212l-30.1 21.7 2.339 3.242 30.1-21.698-2.339-3.244zm-28.93 25.322h46.9v-4h-46.9v4zm44.9-2v19.6h3.999v-19.6h-3.999zm2 17.6h-75.6v4h75.6v-4zm-73.6 2v-26.6h-4v26.6h4zm-0.829-24.979l50.4-36.4-2.342-3.242-50.4 36.4 2.342 3.242zm51.229-38.021v-7h-4v7h4zm0-7c0-3.108-0.779-5.807-2.686-7.714-1.907-1.908-4.606-2.686-7.714-2.686v4c2.492 0 3.993 0.622 4.886 1.514 0.892 0.893 1.514 2.394 1.514 4.886h4zm-10.4-10.4h-39.2v4h39.2v-4zm-37.2 2v-19.6h-4v19.6h4zm-2-17.6h44.8v-4h-44.8v4zm44.8 0c9.557 0 16.006 2.193 19.851 6.119l2.858-2.798c-4.929-5.034-12.666-7.321-22.709-7.321v4zm19.881 6.149c3.926 3.845 6.119 10.294 6.119 19.851h3.999c0-10.043-2.286-17.78-7.32-22.709l-2.798 2.858zm6.119 19.851v2.8h3.999v-2.8h-3.999z" fill="#fff"/>
 </g>
 <defs>
  <filter id="filter0_d" height="142" width="119.6" color-interpolation-filters="sRGB" y="0" x=".51099" filterUnits="userSpaceOnUse">
   <feFlood flood-opacity="0" result="BackgroundImageFix"/>
   <feColorMatrix values="0 0 0 0 0 0 0 0 0 0 0 0 0 0 0 0 0 0 127 0" type="matrix" in="SourceAlpha"/>
   <feOffset/>
   <feGaussianBlur stdDeviation="10"/>
   <feColorMatrix values="0 0 0 0 0.733333 0 0 0 0 0.52549 0 0 0 0 0.988235 0 0 0 1 0" type="matrix"/>
   <feBlend mode="normal" in2="BackgroundImageFix" result="effect1_dropShadow"/>
   <feBlend result="shape" mode="normal" in2="effect1_dropShadow" in="SourceGraphic"/>
  </filter>
 </defs>
</svg>
