<?xml version="1.0" encoding="UTF-8" standalone="no"?>
<svg width="128" xmlns="http://www.w3.org/2000/svg" fill="none" viewBox="0 0 128 146" height="146">
 <g filter="url(#filter0_d)">
  <path d="m80.106 50.6c0-5.6-2.8-8.4-8.4-8.4h-15.4c-5.6 0-8.4 2.8-8.4 8.4v44.8c0 5.6 2.8 8.4 8.4 8.4h15.4c5.6 0 8.4-2.8 8.4-8.4v-44.8zm25.194 44.8c0 9.8-2.24 16.94-6.714 21.42-4.387 4.39-11.48 6.58-21.28 6.58h-26.6c-9.8 0-16.94-2.19-21.42-6.58-4.387-4.48-6.58-11.62-6.58-21.42v-44.8c0-9.8 2.193-16.893 6.58-21.28 4.48-4.48 11.62-6.72 21.42-6.72h26.6c9.8 0 16.893 2.24 21.28 6.72 4.474 4.387 6.714 11.48 6.714 21.28v44.8z" fill="#000"/>
  <path d="m98.586 116.82l-1.415-1.41 1.415 1.41zm-69.3 0l-1.43 1.4 0.015 0.01 0.015 0.02 1.4-1.43zm0-87.5l-1.415-1.414 1.415 1.414zm69.3 0l-1.43 1.399 0.015 0.015 0.015 0.015 1.4-1.429zm-16.48 21.28c0-3.108-0.779-5.807-2.686-7.714-1.908-1.908-4.606-2.686-7.714-2.686v4c2.491 0 3.993 0.622 4.885 1.514 0.893 0.893 1.515 2.394 1.515 4.886h4zm-10.4-10.4h-15.4v4h15.4v-4zm-15.4 0c-3.109 0-5.807 0.778-7.715 2.686-1.907 1.907-2.685 4.606-2.685 7.714h4c0-2.492 0.621-3.993 1.514-4.886 0.892-0.892 2.394-1.514 4.886-1.514v-4zm-10.4 10.4v44.8h4v-44.8h-4zm0 44.8c0 3.108 0.778 5.81 2.685 7.71 1.908 1.91 4.606 2.69 7.715 2.69v-4c-2.492 0-3.994-0.62-4.886-1.51-0.893-0.897-1.514-2.398-1.514-4.89h-4zm10.4 10.4h15.4v-4h-15.4v4zm15.4 0c3.108 0 5.806-0.78 7.714-2.69 1.907-1.9 2.686-4.602 2.686-7.71h-4c0 2.492-0.622 3.993-1.515 4.89-0.892 0.89-2.394 1.51-4.885 1.51v4zm10.4-10.4v-44.8h-4v44.8h4zm21.194 0c0 9.55-2.18 16.06-6.129 20.01l2.829 2.82c5.02-5.01 7.3-12.78 7.3-22.83h-4zm-6.129 20.01c-3.843 3.84-10.299 5.99-19.865 5.99v4c10.032 0 17.764-2.24 22.694-7.17l-2.829-2.82zm-19.865 5.99h-26.6v4h26.6v-4zm-26.6 0c-9.563 0-16.079-2.15-20.021-6.01l-2.799 2.86c5.018 4.91 12.782 7.15 22.82 7.15v-4zm-19.992-5.98c-3.86-3.94-6.008-10.46-6.008-20.02h-4c0 10.04 2.238 17.8 7.15 22.82l2.858-2.8zm-6.008-20.02v-44.8h-4v44.8h4zm0-44.8c0-9.567 2.15-16.022 5.994-19.866l-2.829-2.828c-4.929 4.93-7.165 12.661-7.165 22.694h4zm5.994-19.866c3.943-3.943 10.453-6.134 20.006-6.134v-4c-10.048 0-17.818 2.289-22.835 7.306l2.829 2.828zm20.006-6.134h26.6v-4h-26.6v4zm26.6 0c9.557 0 16.006 2.193 19.85 6.119l2.854-2.798c-4.924-5.034-12.662-7.321-22.704-7.321v4zm19.88 6.149c3.924 3.845 6.114 10.294 6.114 19.851h4c0-10.043-2.28-17.78-7.315-22.709l-2.799 2.858zm6.114 19.851v44.8h4v-44.8h-4z" fill="#fff"/>
 </g>
 <defs>
  <filter id="filter0_d" height="144.8" width="126.6" color-interpolation-filters="sRGB" y=".60001" x=".70544" filterUnits="userSpaceOnUse">
   <feFlood flood-opacity="0" result="BackgroundImageFix"/>
   <feColorMatrix values="0 0 0 0 0 0 0 0 0 0 0 0 0 0 0 0 0 0 127 0" type="matrix" in="SourceAlpha"/>
   <feOffset/>
   <feGaussianBlur stdDeviation="10"/>
   <feColorMatrix values="0 0 0 0 0.733333 0 0 0 0 0.52549 0 0 0 0 0.988235 0 0 0 1 0" type="matrix"/>
   <feBlend mode="normal" in2="BackgroundImageFix" result="effect1_dropShadow"/>
   <feBlend result="shape" mode="normal" in2="effect1_dropShadow" in="SourceGraphic"/>
  </filter>
 </defs>
</svg>
