<svg width="177" height="162" viewBox="0 0 177 162" fill="none" xmlns="http://www.w3.org/2000/svg">
<g filter="url(#filter0_d)">
<path d="M64.7027 130H37.4027L74.5027 32H102.503L139.603 130H112.303L106.003 112.5H71.0027L64.7027 130ZM77.3027 94.3H99.7027L88.5027 61.4L77.3027 94.3Z" fill="white"/>
<path d="M64.7027 130V142H73.1367L75.9934 134.065L64.7027 130ZM37.4027 130L26.18 125.751L20.0288 142H37.4027V130ZM74.5027 32V20H66.2145L63.28 27.7514L74.5027 32ZM102.503 32L113.725 27.7514L110.791 20H102.503V32ZM139.603 130V142H156.977L150.825 125.751L139.603 130ZM112.303 130L101.012 134.065L103.869 142H112.303V130ZM106.003 112.5L117.293 108.435L114.437 100.5H106.003V112.5ZM71.0027 112.5V100.5H62.5688L59.7121 108.435L71.0027 112.5ZM77.3027 94.3L65.9429 90.4328L60.5413 106.3H77.3027V94.3ZM99.7027 94.3V106.3H116.464L111.063 90.4328L99.7027 94.3ZM88.5027 61.4L99.8625 57.5328L88.5027 24.1634L77.1429 57.5328L88.5027 61.4ZM64.7027 118H37.4027V142H64.7027V118ZM48.6255 134.249L85.7255 36.2486L63.28 27.7514L26.18 125.751L48.6255 134.249ZM74.5027 44H102.503V20H74.5027V44ZM91.28 36.2486L128.38 134.249L150.825 125.751L113.725 27.7514L91.28 36.2486ZM139.603 118H112.303V142H139.603V118ZM123.593 125.935L117.293 108.435L94.7121 116.565L101.012 134.065L123.593 125.935ZM106.003 100.5H71.0027V124.5H106.003V100.5ZM59.7121 108.435L53.4121 125.935L75.9934 134.065L82.2934 116.565L59.7121 108.435ZM77.3027 106.3H99.7027V82.3H77.3027V106.3ZM111.063 90.4328L99.8625 57.5328L77.1429 65.2672L88.3429 98.1672L111.063 90.4328ZM77.1429 57.5328L65.9429 90.4328L88.6625 98.1672L99.8625 65.2672L77.1429 57.5328Z" fill="black"/>
</g>
<defs>
<filter id="filter0_d" x="0.0288086" y="0" width="176.948" height="162" filterUnits="userSpaceOnUse" color-interpolation-filters="sRGB">
<feFlood flood-opacity="0" result="BackgroundImageFix"/>
<feColorMatrix in="SourceAlpha" type="matrix" values="0 0 0 0 0 0 0 0 0 0 0 0 0 0 0 0 0 0 127 0"/>
<feOffset/>
<feGaussianBlur stdDeviation="10"/>
<feColorMatrix type="matrix" values="0 0 0 0 0.733333 0 0 0 0 0.52549 0 0 0 0 0.988235 0 0 0 1 0"/>
<feBlend mode="normal" in2="BackgroundImageFix" result="effect1_dropShadow"/>
<feBlend mode="normal" in="SourceGraphic" in2="effect1_dropShadow" result="shape"/>
</filter>
</defs>
</svg>
