<svg width="143" height="162" viewBox="0 0 143 162" fill="none" xmlns="http://www.w3.org/2000/svg">
<g filter="url(#filter0_d)">
<path d="M110.006 130H32.3062V32H110.006V51.6H57.5062V70.5H98.8062V90.1H57.5062V110.4H110.006V130Z" fill="white"/>
<path d="M110.006 130V142H122.006V130H110.006ZM32.3062 130H20.3062V142H32.3062V130ZM32.3062 32V20H20.3062V32H32.3062ZM110.006 32H122.006V20H110.006V32ZM110.006 51.6V63.6H122.006V51.6H110.006ZM57.5062 51.6V39.6H45.5062V51.6H57.5062ZM57.5062 70.5H45.5062V82.5H57.5062V70.5ZM98.8062 70.5H110.806V58.5H98.8062V70.5ZM98.8062 90.1V102.1H110.806V90.1H98.8062ZM57.5062 90.1V78.1H45.5062V90.1H57.5062ZM57.5062 110.4H45.5062V122.4H57.5062V110.4ZM110.006 110.4H122.006V98.4H110.006V110.4ZM110.006 118H32.3062V142H110.006V118ZM44.3062 130V32H20.3062V130H44.3062ZM32.3062 44H110.006V20H32.3062V44ZM98.0062 32V51.6H122.006V32H98.0062ZM110.006 39.6H57.5062V63.6H110.006V39.6ZM45.5062 51.6V70.5H69.5062V51.6H45.5062ZM57.5062 82.5H98.8062V58.5H57.5062V82.5ZM86.8062 70.5V90.1H110.806V70.5H86.8062ZM98.8062 78.1H57.5062V102.1H98.8062V78.1ZM45.5062 90.1V110.4H69.5062V90.1H45.5062ZM57.5062 122.4H110.006V98.4H57.5062V122.4ZM98.0062 110.4V130H122.006V110.4H98.0062Z" fill="black"/>
</g>
<defs>
<filter id="filter0_d" x="0.306152" y="0" width="141.7" height="162" filterUnits="userSpaceOnUse" color-interpolation-filters="sRGB">
<feFlood flood-opacity="0" result="BackgroundImageFix"/>
<feColorMatrix in="SourceAlpha" type="matrix" values="0 0 0 0 0 0 0 0 0 0 0 0 0 0 0 0 0 0 127 0"/>
<feOffset/>
<feGaussianBlur stdDeviation="10"/>
<feColorMatrix type="matrix" values="0 0 0 0 0.733333 0 0 0 0 0.52549 0 0 0 0 0.988235 0 0 0 1 0"/>
<feBlend mode="normal" in2="BackgroundImageFix" result="effect1_dropShadow"/>
<feBlend mode="normal" in="SourceGraphic" in2="effect1_dropShadow" result="shape"/>
</filter>
</defs>
</svg>
