<svg width="152" height="164" viewBox="0 0 152 164" fill="none" xmlns="http://www.w3.org/2000/svg">
<g filter="url(#filter0_d)">
<path d="M119.386 127.9C97.5463 130.233 77.4797 131.4 59.1863 131.4C50.0397 131.4 43.3197 129.253 39.0263 124.96C34.733 120.667 32.5863 113.947 32.5863 104.8V60C32.5863 50.2 34.7797 43.1067 39.1663 38.72C43.6463 34.24 50.7863 32 60.5863 32H110.986V51.6H66.1863C60.5863 51.6 57.7863 54.4 57.7863 60V104.8C57.7863 106.947 58.393 108.673 59.6063 109.98C60.913 111.193 62.6397 111.8 64.7863 111.8C75.5197 111.8 85.3197 111.567 94.1863 111.1V90.8H75.9863V74H119.386V127.9Z" fill="white"/>
<path d="M119.386 127.9L120.661 139.832L131.386 138.686V127.9H119.386ZM39.0263 124.96L47.5116 116.475L47.5116 116.475L39.0263 124.96ZM39.1663 38.72L47.6516 47.2053L47.6516 47.2053L39.1663 38.72ZM110.986 32H122.986V20H110.986V32ZM110.986 51.6V63.6H122.986V51.6H110.986ZM59.6063 109.98L50.8128 118.145L51.1152 118.471L51.4409 118.774L59.6063 109.98ZM94.1863 111.1L94.817 123.083L106.186 122.485V111.1H94.1863ZM94.1863 90.8H106.186V78.8H94.1863V90.8ZM75.9863 90.8H63.9863V102.8H75.9863V90.8ZM75.9863 74V62H63.9863V74H75.9863ZM119.386 74H131.386V62H119.386V74ZM118.112 115.968C96.614 118.265 76.9796 119.4 59.1863 119.4V143.4C77.9798 143.4 98.4786 142.202 120.661 139.832L118.112 115.968ZM59.1863 119.4C51.6322 119.4 48.6362 117.599 47.5116 116.475L30.541 133.445C38.0032 140.907 48.4471 143.4 59.1863 143.4V119.4ZM47.5116 116.475C46.3871 115.35 44.5863 112.354 44.5863 104.8H20.5863C20.5863 115.539 23.0789 125.983 30.541 133.445L47.5116 116.475ZM44.5863 104.8V60H20.5863V104.8H44.5863ZM44.5863 60C44.5863 51.5976 46.5231 48.3338 47.6516 47.2053L30.681 30.2347C23.0362 37.8795 20.5863 48.8024 20.5863 60H44.5863ZM47.6516 47.2053C48.9126 45.9443 52.2705 44 60.5863 44V20C49.3022 20 38.38 22.5357 30.681 30.2347L47.6516 47.2053ZM60.5863 44H110.986V20H60.5863V44ZM98.9863 32V51.6H122.986V32H98.9863ZM110.986 39.6H66.1863V63.6H110.986V39.6ZM66.1863 39.6C61.5366 39.6 55.8452 40.7706 51.401 45.2147C46.9569 49.6589 45.7863 55.3503 45.7863 60H69.7863C69.7863 59.0497 70.0158 60.5411 68.3716 62.1853C66.7275 63.8294 65.2361 63.6 66.1863 63.6V39.6ZM45.7863 60V104.8H69.7863V60H45.7863ZM45.7863 104.8C45.7863 109.323 47.1334 114.183 50.8128 118.145L68.3999 101.815C68.9444 102.401 69.3347 103.078 69.5629 103.727C69.7787 104.342 69.7863 104.748 69.7863 104.8H45.7863ZM51.4409 118.774C55.4033 122.453 60.2636 123.8 64.7863 123.8V99.8C64.8386 99.8 65.2448 99.8076 65.8592 100.023C66.5084 100.252 67.1854 100.642 67.7717 101.186L51.4409 118.774ZM64.7863 123.8C75.6883 123.8 85.7025 123.563 94.817 123.083L93.5556 99.1166C84.9369 99.5702 75.351 99.8 64.7863 99.8V123.8ZM106.186 111.1V90.8H82.1863V111.1H106.186ZM94.1863 78.8H75.9863V102.8H94.1863V78.8ZM87.9863 90.8V74H63.9863V90.8H87.9863ZM75.9863 86H119.386V62H75.9863V86ZM107.386 74V127.9H131.386V74H107.386Z" fill="black"/>
</g>
<defs>
<filter id="filter0_d" x="0.586304" y="0" width="150.8" height="163.4" filterUnits="userSpaceOnUse" color-interpolation-filters="sRGB">
<feFlood flood-opacity="0" result="BackgroundImageFix"/>
<feColorMatrix in="SourceAlpha" type="matrix" values="0 0 0 0 0 0 0 0 0 0 0 0 0 0 0 0 0 0 127 0"/>
<feOffset/>
<feGaussianBlur stdDeviation="10"/>
<feColorMatrix type="matrix" values="0 0 0 0 0.733333 0 0 0 0 0.52549 0 0 0 0 0.988235 0 0 0 1 0"/>
<feBlend mode="normal" in2="BackgroundImageFix" result="effect1_dropShadow"/>
<feBlend mode="normal" in="SourceGraphic" in2="effect1_dropShadow" result="shape"/>
</filter>
</defs>
</svg>
