<svg width="150" height="164" viewBox="0 0 150 164" fill="none" xmlns="http://www.w3.org/2000/svg">
<g filter="url(#filter0_d)">
<path d="M33.5759 109.7C59.1492 111.1 76.4625 111.8 85.5159 111.8C87.6625 111.8 89.3425 111.193 90.5559 109.98C91.8625 108.673 92.5159 106.947 92.5159 104.8V92.2H60.3159C50.5159 92.2 43.3759 90.0067 38.8959 85.62C34.5092 81.14 32.3159 74 32.3159 64.2V60C32.3159 50.2 34.5092 43.1067 38.8959 38.72C43.3759 34.24 50.5159 32 60.3159 32H109.456V51.6H65.9159C60.3159 51.6 57.5159 54.4 57.5159 60V62.8C57.5159 68.4 60.3159 71.2 65.9159 71.2H91.1159C100.263 71.2 106.983 73.3467 111.276 77.64C115.569 81.9333 117.716 88.6533 117.716 97.8V104.8C117.716 113.947 115.569 120.667 111.276 124.96C106.983 129.253 100.263 131.4 91.1159 131.4C86.3559 131.4 81.3159 131.307 75.9959 131.12L63.1159 130.56C53.5959 130.093 43.7492 129.44 33.5759 128.6V109.7Z" fill="white"/>
<path d="M33.5759 109.7L34.2318 97.7179L21.5759 97.0251V109.7H33.5759ZM90.5559 109.98L82.0706 101.495H82.0706L90.5559 109.98ZM92.5159 92.2H104.516V80.2H92.5159V92.2ZM38.8959 85.62L30.3217 94.0155L30.4101 94.1058L30.5004 94.1941L38.8959 85.62ZM38.8959 38.72L47.3811 47.2053L47.3811 47.2053L38.8959 38.72ZM109.456 32H121.456V20H109.456V32ZM109.456 51.6V63.6H121.456V51.6H109.456ZM111.276 124.96L102.791 116.475H102.791L111.276 124.96ZM75.9959 131.12L75.4746 143.109L75.5248 143.111L75.5751 143.113L75.9959 131.12ZM63.1159 130.56L62.5283 142.546L62.5615 142.547L62.5946 142.549L63.1159 130.56ZM33.5759 128.6H21.5759V139.65L32.5884 140.559L33.5759 128.6ZM32.9199 121.682C58.453 123.08 76.0846 123.8 85.5159 123.8V99.8C76.8405 99.8 59.8454 99.1201 34.2318 97.7179L32.9199 121.682ZM85.5159 123.8C90.0015 123.8 95.0438 122.463 99.0411 118.465L82.0706 101.495C82.7616 100.804 83.5621 100.328 84.3101 100.058C85.011 99.8053 85.4721 99.8 85.5159 99.8V123.8ZM99.0411 118.465C102.963 114.543 104.516 109.573 104.516 104.8H80.5159C80.5159 104.655 80.5394 104.153 80.8024 103.458C81.0783 102.729 81.5223 102.043 82.0706 101.495L99.0411 118.465ZM104.516 104.8V92.2H80.5159V104.8H104.516ZM92.5159 80.2H60.3159V104.2H92.5159V80.2ZM60.3159 80.2C51.9428 80.2 48.5471 78.2755 47.2914 77.0459L30.5004 94.1941C38.2046 101.738 49.0889 104.2 60.3159 104.2V80.2ZM47.47 77.2245C46.2404 75.9688 44.3159 72.573 44.3159 64.2H20.3159C20.3159 75.4269 22.778 86.3112 30.3217 94.0155L47.47 77.2245ZM44.3159 64.2V60H20.3159V64.2H44.3159ZM44.3159 60C44.3159 51.5976 46.2526 48.3338 47.3811 47.2053L30.4106 30.2347C22.7658 37.8795 20.3159 48.8024 20.3159 60H44.3159ZM47.3811 47.2053C48.6422 45.9443 52 44 60.3159 44V20C49.0317 20 38.1096 22.5357 30.4106 30.2347L47.3811 47.2053ZM60.3159 44H109.456V20H60.3159V44ZM97.4559 32V51.6H121.456V32H97.4559ZM109.456 39.6H65.9159V63.6H109.456V39.6ZM65.9159 39.6C61.2661 39.6 55.5747 40.7706 51.1306 45.2147C46.6864 49.6589 45.5159 55.3503 45.5159 60H69.5159C69.5159 59.0497 69.7453 60.5411 68.1011 62.1853C66.457 63.8294 64.9656 63.6 65.9159 63.6V39.6ZM45.5159 60V62.8H69.5159V60H45.5159ZM45.5159 62.8C45.5159 67.4497 46.6864 73.1411 51.1306 77.5853C55.5747 82.0294 61.2661 83.2 65.9159 83.2V59.2C64.9656 59.2 66.457 58.9706 68.1011 60.6147C69.7453 62.2589 69.5159 63.7503 69.5159 62.8H45.5159ZM65.9159 83.2H91.1159V59.2H65.9159V83.2ZM91.1159 83.2C98.67 83.2 101.666 85.0007 102.791 86.1253L119.761 69.1547C112.299 61.6926 101.855 59.2 91.1159 59.2V83.2ZM102.791 86.1253C103.915 87.2498 105.716 90.2459 105.716 97.8H129.716C129.716 87.0608 127.223 76.6168 119.761 69.1547L102.791 86.1253ZM105.716 97.8V104.8H129.716V97.8H105.716ZM105.716 104.8C105.716 112.354 103.915 115.35 102.791 116.475L119.761 133.445C127.223 125.983 129.716 115.539 129.716 104.8H105.716ZM102.791 116.475C101.666 117.599 98.67 119.4 91.1159 119.4V143.4C101.855 143.4 112.299 140.907 119.761 133.445L102.791 116.475ZM91.1159 119.4C86.5114 119.4 81.6125 119.31 76.4167 119.127L75.5751 143.113C81.0192 143.304 86.2003 143.4 91.1159 143.4V119.4ZM76.5171 119.131L63.6371 118.571L62.5946 142.549L75.4746 143.109L76.5171 119.131ZM63.7034 118.574C54.3258 118.115 44.6128 117.47 34.5633 116.641L32.5884 140.559C42.8856 141.41 52.8659 142.072 62.5283 142.546L63.7034 118.574ZM45.5759 128.6V109.7H21.5759V128.6H45.5759Z" fill="black"/>
</g>
<defs>
<filter id="filter0_d" x="0.315918" y="0" width="149.4" height="163.4" filterUnits="userSpaceOnUse" color-interpolation-filters="sRGB">
<feFlood flood-opacity="0" result="BackgroundImageFix"/>
<feColorMatrix in="SourceAlpha" type="matrix" values="0 0 0 0 0 0 0 0 0 0 0 0 0 0 0 0 0 0 127 0"/>
<feOffset/>
<feGaussianBlur stdDeviation="10"/>
<feColorMatrix type="matrix" values="0 0 0 0 0.733333 0 0 0 0 0.52549 0 0 0 0 0.988235 0 0 0 1 0"/>
<feBlend mode="normal" in2="BackgroundImageFix" result="effect1_dropShadow"/>
<feBlend mode="normal" in="SourceGraphic" in2="effect1_dropShadow" result="shape"/>
</filter>
</defs>
</svg>
