<svg width="140" height="163" viewBox="0 0 140 163" fill="none" xmlns="http://www.w3.org/2000/svg">
<g filter="url(#filter0_d)">
<path d="M107.611 63.3C107.611 71.2333 104.251 78.0933 97.5309 83.88C95.4776 85.6533 93.2376 87.4267 90.8109 89.2L60.7109 110.9H107.611V130.5H32.0109V103.9L82.4109 67.5V60.5C82.4109 54.9 79.6109 52.1 74.0109 52.1H34.8109V32.5H79.6109C89.4109 32.5 96.5043 34.74 100.891 39.22C105.371 43.6067 107.611 50.7 107.611 60.5V63.3Z" fill="black"/>
<path d="M97.5309 83.88L89.7007 74.7868L89.6941 74.7924L89.6875 74.7981L97.5309 83.88ZM90.8109 89.2L97.8286 98.9341L97.8599 98.9115L97.8911 98.8887L90.8109 89.2ZM60.7109 110.9L53.6933 101.166L23.546 122.9H60.7109V110.9ZM107.611 110.9H119.611V98.9H107.611V110.9ZM107.611 130.5V142.5H119.611V130.5H107.611ZM32.0109 130.5H20.0109V142.5H32.0109V130.5ZM32.0109 103.9L24.9851 94.1718L20.0109 97.7643V103.9H32.0109ZM82.4109 67.5L89.4368 77.2281L94.4109 73.6357V67.5H82.4109ZM34.8109 52.1H22.8109V64.1H34.8109V52.1ZM34.8109 32.5V20.5H22.8109V32.5H34.8109ZM100.891 39.22L92.3168 47.6155L92.4052 47.7057L92.4954 47.7941L100.891 39.22ZM95.6109 63.3C95.6109 67.3034 94.123 70.9786 89.7007 74.7868L105.361 92.9732C114.379 85.208 119.611 75.1633 119.611 63.3H95.6109ZM89.6875 74.7981C87.9048 76.3377 85.9225 77.9097 83.7307 79.5113L97.8911 98.8887C100.553 96.9437 103.05 94.9689 105.374 92.9619L89.6875 74.7981ZM83.7933 79.4659L53.6933 101.166L67.7286 120.634L97.8286 98.9341L83.7933 79.4659ZM60.7109 122.9H107.611V98.9H60.7109V122.9ZM95.6109 110.9V130.5H119.611V110.9H95.6109ZM107.611 118.5H32.0109V142.5H107.611V118.5ZM44.0109 130.5V103.9H20.0109V130.5H44.0109ZM39.0368 113.628L89.4368 77.2281L75.3851 57.7718L24.9851 94.1718L39.0368 113.628ZM94.4109 67.5V60.5H70.4109V67.5H94.4109ZM94.4109 60.5C94.4109 55.8503 93.2404 50.1589 88.7962 45.7147C84.3521 41.2706 78.6607 40.1 74.0109 40.1V64.1C74.9612 64.1 73.4698 64.3294 71.8257 62.6853C70.1815 61.0411 70.4109 59.5497 70.4109 60.5H94.4109ZM74.0109 40.1H34.8109V64.1H74.0109V40.1ZM46.8109 52.1V32.5H22.8109V52.1H46.8109ZM34.8109 44.5H79.6109V20.5H34.8109V44.5ZM79.6109 44.5C87.9554 44.5 91.1816 46.4561 92.3168 47.6155L109.465 30.8245C101.827 23.0238 90.8664 20.5 79.6109 20.5V44.5ZM92.4954 47.7941C93.6548 48.9293 95.6109 52.1555 95.6109 60.5H119.611C119.611 49.2445 117.087 38.284 109.286 30.6459L92.4954 47.7941ZM95.6109 60.5V63.3H119.611V60.5H95.6109Z" fill="white"/>
</g>
<defs>
<filter id="filter0_d" x="0.0109863" y="0.5" width="139.6" height="162" filterUnits="userSpaceOnUse" color-interpolation-filters="sRGB">
<feFlood flood-opacity="0" result="BackgroundImageFix"/>
<feColorMatrix in="SourceAlpha" type="matrix" values="0 0 0 0 0 0 0 0 0 0 0 0 0 0 0 0 0 0 127 0"/>
<feOffset/>
<feGaussianBlur stdDeviation="10"/>
<feColorMatrix type="matrix" values="0 0 0 0 0.733333 0 0 0 0 0.52549 0 0 0 0 0.988235 0 0 0 1 0"/>
<feBlend mode="normal" in2="BackgroundImageFix" result="effect1_dropShadow"/>
<feBlend mode="normal" in="SourceGraphic" in2="effect1_dropShadow" result="shape"/>
</filter>
</defs>
</svg>