<svg id="Layer_1" data-name="Layer 1" xmlns="http://www.w3.org/2000/svg" viewBox="0 0 1080 1080"><defs><style>.cls-1{fill:#f172ac;}.cls-2{fill:#4fc7e7;}.cls-3{fill:#a895c7;}.cls-4{fill:#a94e9e;}.cls-5{fill:#6b66ae;}</style></defs><title>LOGO</title><path class="cls-1" d="M1010.81,636.29c-1.83,25.81-8.83,50.57-16.46,75-27.56,88.34-75.55,163.42-147.2,222.16-63.42,52-136.41,82.07-217.57,92.92-62.79,8.4-124.41,3.08-185.05-14.21A455.56,455.56,0,0,1,276.29,923.5c-56-46.59-99.36-102.86-129.45-169.32A447,447,0,0,1,108.43,611.5c-.47-4.94,0-10,0-15,7.34-.13,7.81,6.51,9.92,10.89C132.81,637.59,155.15,659,187,669.51c43.34,14.38,93.33-.91,122.08-36.17,10.37-12.72,18-26.46,22.07-42.29.92-3.51,1.34-7.9,6.64-7.88,8.4,57,30.13,107.31,72.43,147.62,41.17,39.22,89.69,61,146.41,65,40.17,2.81,78.24-3.74,113.78-23.16a188.73,188.73,0,0,0,65.14-58.19,7.43,7.43,0,0,1,3.19-2.25c13.69-1.93,27.44-1.14,41.19-1.07,36.35.18,72.7.6,109-.08,49.41-.92,89.28-19.13,112.52-65.74C1003.43,641.37,1005.12,636.59,1010.81,636.29Z"/><path class="cls-2" d="M106.82,538.57c.31-46.93,10.18-92.08,26-135.94C164.3,315.58,217,243.71,290.15,187.72,352.94,139.67,424,109.8,502.23,98.14Q636.5,78.15,761,133c46.08,20.38,88.69,46.58,124.65,82.38,37.51,37.35,40.6,101.19,11.57,145.43-25.06,38.19-81.52,60.89-127,47.07-20.88-6.34-38.09-18.58-55.18-31.65-60.28-46.1-127.57-60.39-201.13-41.9-53.83,13.52-97,43.54-130.23,88.15-26.84,36-40.48,76.92-46,121-5.7-1.09-4.69-6.4-5.79-10-10.3-33.94-29.87-59.78-62.37-75.35-59.82-28.68-133,2.28-154.2,65.44C113.51,529,113.82,536,106.82,538.57Z"/><path class="cls-3" d="M738.31,714l-2.78.45c-6.53-3.33-13.55-1.83-20.36-1.91-17.61-.2-35.22,0-52.84-.09-64.49-.21-115.69-52.06-114.82-117,.78-58.06,38.75-100.14,91.86-112.95,13.19-3.18,27.66-5,42-1.82,6.4,1.42,13.58-1.2,20.41-1.22q99.36-.33,198.72-.32c4.09,0,8.47-1.1,12.22,1.73-4.1,5-9.91,3.8-15,3.4-52.63-4.12-107.67,46.55-111.41,103.92-2.75,42.19-16.75,81.79-40.41,117.38A33.66,33.66,0,0,1,738.31,714Z"/><path class="cls-4" d="M738.31,714c1.62-8.18,7.72-13.92,11.68-20.75,19.71-34,29.78-70.77,34.09-109.6,4.57-41.16,26.8-70.35,62.11-90.75,21-12.12,43.72-11.71,66.55-12.07,62.68,5.69,111,66.76,102.27,129.36-1.22,8.72-2.79,17.39-4.2,26.1-3.3,5.53-6.78,11-9.86,16.61-22.34,41-58.81,59.48-103.29,60.9C844.59,715.5,791.43,714.07,738.31,714Z"/><path class="cls-5" d="M106.82,538.57c7.28-23.17,16.61-45.18,34.89-62.11,63.78-59,164.47-32.48,190,48.66,1.94,6.14,4,12.25,6,18.37q0,19.83.08,39.68c-6.36,7.6-5.79,17.77-10.13,26.45-24.14,48.14-63.33,70.5-115.78,67.53-41.51-2.35-72-24.56-92.35-60.94-3.68-6.56-5.2-14.39-11.11-19.67A233.87,233.87,0,0,1,106.82,538.57Z"/></svg>